<svg width="24" height="24" viewBox="0 0 24 24" fill="none" xmlns="http://www.w3.org/2000/svg">
<path d="M8.19531 18.6104C7.85492 18.8711 7.46945 18.9983 7.00391 18.999C7.44027 18.9983 7.84861 18.8686 8.19531 18.6104ZM18.1953 18.6104C17.8549 18.8711 17.4694 18.9983 17.0039 18.999C17.4403 18.9983 17.8486 18.8686 18.1953 18.6104ZM5.81738 18.6191C6.10831 18.8328 6.44148 18.9587 6.7998 18.9912C6.42543 18.96 6.10561 18.8365 5.81738 18.6191ZM15.8174 18.6191C16.1083 18.8328 16.4415 18.9587 16.7998 18.9912C16.4254 18.96 16.1056 18.8365 15.8174 18.6191ZM5.00879 17.1973C5.04165 17.5614 5.16919 17.9007 5.38867 18.1953C5.12745 17.8541 5 17.4671 5 17L5.00879 17.1973ZM15.0088 17.1973C15.0416 17.5614 15.1692 17.9007 15.3887 18.1953C15.1275 17.8541 15 17.4671 15 17L15.0088 17.1973ZM8.99121 17.209C8.95982 17.5681 8.84286 17.8772 8.63965 18.1562C8.87967 17.8172 9.00055 17.4216 9 17L8.99121 17.209ZM18.9912 17.209C18.9598 17.5681 18.8429 17.8772 18.6396 18.1562C18.8797 17.8172 19.0005 17.4216 19 17L18.9912 17.209ZM5.38184 15.8154C5.16773 16.107 5.0433 16.4416 5.00977 16.7998L5 16.998V16H2.75L2.74902 15.999L2.79102 15.8252H5.125C5.21155 15.8252 5.29713 15.821 5.38184 15.8154ZM16.75 5L16.1016 7.77148L15.8135 9H15.8311L15.6514 9.77246L14.9512 12.7725L14.665 14H21.5762L21.1719 15.9902C21.1711 15.9937 21.1695 15.9962 21.1689 15.998L21.168 16H19V16.998L18.9902 16.7998C18.9474 16.3422 18.758 15.9213 18.4199 15.582C18.0317 15.1926 17.5356 15 17 15C16.4644 15 15.9683 15.1926 15.5801 15.582C15.242 15.9213 15.0526 16.3422 15.0098 16.7998L15 16.998V16H9V16.998L8.99023 16.7998C8.94739 16.3422 8.75796 15.9212 8.41992 15.582C8.12051 15.2817 7.75681 15.0993 7.36035 15.0312C7.44468 14.9609 7.52777 14.8863 7.60742 14.8066C8.28299 14.1309 8.62495 13.283 8.625 12.3252C8.625 12.2704 8.62156 12.2156 8.61914 12.1611C9.44672 12.0929 10.1824 11.757 10.7822 11.1572C11.4581 10.4814 11.7998 9.63287 11.7998 8.6748C11.7998 7.71696 11.4579 6.86914 10.7822 6.19336C10.1064 5.51749 9.25787 5.1748 8.2998 5.1748H6.02539C6.1401 5.0935 6.26473 5.0373 6.41504 5.01367L6.60156 5H16.75ZM21.8594 12.5166C21.8566 12.5755 21.8505 12.6352 21.8398 12.6963L21.6006 13.8799L21.7324 13.1875L21.832 12.6621L21.8594 12.5166ZM19.8027 9.4043L21.6777 11.8789L21.6836 11.8857L21.6885 11.8926C21.7358 11.9528 21.7699 12.0114 21.7949 12.0684L21.6514 11.876L19.8027 9.4043ZM19.7939 9.39258L19.7988 9.39844L19.8008 9.40137L19.7939 9.39258Z" fill="#B4D672" stroke="#B4D672" stroke-width="2"/>
</svg>
