<svg width="102" height="93" viewBox="0 0 102 93" fill="none" xmlns="http://www.w3.org/2000/svg">
<path d="M3.19715 1.38896C1.87823 0.403446 0 1.34465 0 2.9911V47.2703C0 54.9766 1.53 62.0901 4.59 68.6108C5.92985 71.466 7.4897 74.1425 9.26956 76.6405C10.296 78.0811 12.5897 76.4591 12.0513 74.7742C10.8205 70.9227 10.2034 66.8358 10.2 62.5135C10.2 56.2468 11.4971 49.7041 14.0913 42.8853C16.5317 36.4707 20.4932 29.1028 25.9756 20.7816C26.5619 19.8916 26.3597 18.6964 25.5059 18.0585L3.19715 1.38896ZM52.531 5.54069C51.7378 4.57955 50.2641 4.58126 49.4728 5.54398C38.9784 18.3108 31.5621 29.3623 27.2238 38.6985C22.678 48.4813 20.4034 56.4196 20.4 62.5135C20.4 70.982 23.375 78.1802 29.325 84.1081C35.275 90.036 42.5 93 51 93C59.5 93 66.725 90.036 72.675 84.1081C78.625 78.1802 81.6 70.982 81.6 62.5135C81.6 56.4162 79.305 48.4355 74.715 38.5715C70.3367 29.1623 62.942 18.1549 52.531 5.54069ZM102 2.9911C102 1.34465 100.122 0.403445 98.8028 1.38896L76.4942 18.0584C75.6404 18.6963 75.4382 19.8916 76.0247 20.7816C81.5103 29.106 85.4733 36.4756 87.9138 42.8904C90.508 49.7092 91.8034 56.2502 91.8 62.5135C91.8 66.8324 91.1829 70.9193 89.9487 74.7742C89.4077 76.464 91.7043 78.0877 92.734 76.6427C94.5145 74.1441 96.0748 71.4668 97.4151 68.6108C100.475 62.0901 102.003 54.9766 102 47.2703V2.9911Z" fill="#B4D672"/>
</svg>
