<svg width="16" height="20" viewBox="0 0 16 20" fill="none" xmlns="http://www.w3.org/2000/svg">
<path d="M7.25 0.0826416C7.00659 0.136898 6.76752 0.217885 6.53707 0.325602C2.55332 2.18764 0 7.39458 0 11.8568C0 16.0967 3.18341 19.5799 7.25 19.9647V0.0826416Z" fill="#B4D672"/>
<path d="M8.75 19.9647C12.8166 19.5799 16 16.0967 16 11.8568C16 11.4507 15.9789 11.0386 15.9374 10.6233L8.75 17.8107V19.9647Z" fill="#B4D672"/>
<path d="M14.2597 5.1797C13.8707 4.45488 13.4222 3.76821 12.92 3.14074L8.75 7.31071V10.6894L14.2597 5.1797Z" fill="#B4D672"/>
<path d="M11.9084 2.03095C11.1732 1.32571 10.3538 0.742013 9.46293 0.325602C9.23248 0.217885 8.99341 0.136898 8.75 0.0826416V5.18939L11.9084 2.03095Z" fill="#B4D672"/>
<path d="M14.9364 6.62427L8.75 12.8107V15.6894L15.5 8.93939L15.6319 8.80747C15.458 8.06977 15.2246 7.33639 14.9364 6.62427Z" fill="#B4D672"/>
</svg>
