<svg width="20" height="20" viewBox="0 0 20 20" fill="none" xmlns="http://www.w3.org/2000/svg">
<path d="M20 6.50024C20 2.91039 17.0899 0.000244141 13.5 0.000244141C11.4171 0.000244141 9.56308 0.982544 8.37351 2.50745C13.4471 2.70361 17.5 6.87862 17.5 12.0002C17.5 12.1106 17.4981 12.2204 17.4944 12.3298L17.8267 12.4187C18.793 12.6773 19.677 11.7932 19.4185 10.8269L19.2911 10.3509C19.1882 9.96631 19.2501 9.56005 19.4155 9.19797C19.7908 8.37623 20 7.46266 20 6.50024Z" fill="#B4D672"/>
<path fill-rule="evenodd" clip-rule="evenodd" d="M16 12.0002C16 16.4185 12.4183 20.0002 8 20.0002C6.76449 20.0002 5.5944 19.7202 4.54976 19.22C4.19071 19.0481 3.78393 18.9878 3.39939 19.0907L2.17335 19.4187C1.20701 19.6773 0.322954 18.7932 0.581511 17.8269L0.909555 16.6009C1.01245 16.2163 0.952094 15.8095 0.7802 15.4505C0.280075 14.4058 0 13.2357 0 12.0002C0 7.58197 3.58172 4.00024 8 4.00024C12.4183 4.00024 16 7.58197 16 12.0002ZM4.5 13.0002C5.05228 13.0002 5.5 12.5525 5.5 12.0002C5.5 11.448 5.05228 11.0002 4.5 11.0002C3.94772 11.0002 3.5 11.448 3.5 12.0002C3.5 12.5525 3.94772 13.0002 4.5 13.0002ZM8 13.0002C8.55228 13.0002 9 12.5525 9 12.0002C9 11.448 8.55228 11.0002 8 11.0002C7.44772 11.0002 7 11.448 7 12.0002C7 12.5525 7.44772 13.0002 8 13.0002ZM11.5 13.0002C12.0523 13.0002 12.5 12.5525 12.5 12.0002C12.5 11.448 12.0523 11.0002 11.5 11.0002C10.9477 11.0002 10.5 11.448 10.5 12.0002C10.5 12.5525 10.9477 13.0002 11.5 13.0002Z" fill="#B4D672"/>
</svg>
