<svg width="22" height="20" viewBox="0 0 22 20" fill="none" xmlns="http://www.w3.org/2000/svg">
<path fill-rule="evenodd" clip-rule="evenodd" d="M3.00691 6.10496L9.00691 0.771627C10.1436 -0.238736 11.8564 -0.238736 12.9931 0.771627L18.9931 6.10496C19.6336 6.67426 20 7.49028 20 8.34719V18.25H21C21.4142 18.25 21.75 18.5858 21.75 19C21.75 19.4142 21.4142 19.75 21 19.75H1C0.585786 19.75 0.25 19.4142 0.25 19C0.25 18.5858 0.585786 18.25 1 18.25H2V8.34719C2 7.49028 2.36644 6.67426 3.00691 6.10496ZM8.25 5.99999C8.25 5.58578 8.58579 5.24999 9 5.24999H13C13.4142 5.24999 13.75 5.58578 13.75 5.99999C13.75 6.4142 13.4142 6.74999 13 6.74999H9C8.58579 6.74999 8.25 6.4142 8.25 5.99999ZM13.052 8.24999C13.9505 8.24996 14.6997 8.24993 15.2945 8.3299C15.9223 8.41431 16.4891 8.59998 16.9445 9.05545C17.4 9.51092 17.5857 10.0777 17.6701 10.7055C17.7501 11.3003 17.75 12.0495 17.75 12.948L17.75 18.25H16.25V13C16.25 12.036 16.2484 11.3884 16.1835 10.9054C16.1214 10.4439 16.0142 10.2464 15.8839 10.1161C15.7536 9.98579 15.5561 9.87857 15.0946 9.81652C14.6116 9.75158 13.964 9.74999 13 9.74999H9C8.03599 9.74999 7.38843 9.75158 6.90539 9.81652C6.44393 9.87857 6.24643 9.98579 6.11612 10.1161C5.9858 10.2464 5.87858 10.4439 5.81654 10.9054C5.75159 11.3884 5.75 12.036 5.75 13V18.25H4.25L4.25 12.948C4.24997 12.0495 4.24994 11.3003 4.32991 10.7055C4.41432 10.0777 4.59999 9.51092 5.05546 9.05545C5.51093 8.59998 6.07773 8.41431 6.70552 8.3299C7.3003 8.24993 8.04952 8.24996 8.948 8.24999H13.052ZM7.25 12.5C7.25 12.0858 7.58579 11.75 8 11.75H14C14.4142 11.75 14.75 12.0858 14.75 12.5C14.75 12.9142 14.4142 13.25 14 13.25H8C7.58579 13.25 7.25 12.9142 7.25 12.5ZM7.25 15.5C7.25 15.0858 7.58579 14.75 8 14.75H14C14.4142 14.75 14.75 15.0858 14.75 15.5C14.75 15.9142 14.4142 16.25 14 16.25H8C7.58579 16.25 7.25 15.9142 7.25 15.5Z" fill="#B4D672"/>
</svg>
