<svg width="120" height="120" viewBox="0 0 120 120" fill="none" xmlns="http://www.w3.org/2000/svg">
<path d="M61.0713 30.966C72.504 30.966 83.7475 36.5156 89.3691 39.2902V52.9181C89.3691 52.9181 73.8447 45.2987 64.0713 47.7765C53.4496 50.4695 51.3407 58.6306 51.3408 64.1798C51.3411 69.7291 53.4498 78.2975 64.0713 80.9904C73.8231 83.4627 89.3007 75.8833 89.3691 75.8497V89.4777C83.7474 92.2523 70.2173 97.8019 61.0713 97.8019C49.6387 97.8019 16.8003 94.9448 16.7998 65.3224V63.4454C16.7998 33.8224 49.6386 30.966 61.0713 30.966ZM36.3564 45.2745C25.492 45.2746 24.9239 54.4948 24.9238 55.1486V77.59C24.9363 77.6349 25.7361 80.4973 27.0322 81.7521C28.3357 83.0135 31.2316 83.7071 31.248 83.7111C31.248 83.7111 31.4912 60.2099 31.4912 56.7804C31.4914 53.3533 34.2888 51.5115 37.0049 51.8029C42.3563 52.3772 41.7891 58.005 41.7891 58.005C41.7889 58.0503 41.7684 60.3076 39.7617 62.004C38.1223 63.3893 34.3291 63.5538 34.3291 63.5538V69.756C34.3419 69.7564 41.3626 69.9669 44.4648 66.6554C49.3033 61.4897 48.2866 55.2167 48.2754 55.1486C48.2709 55.1073 47.1987 45.2746 36.3564 45.2745ZM102 62.3488H95.8379V72.713H84.5674V62.3488H78.4053V55.4943H102V62.3488ZM85.8438 19.3019L82.0576 30.6574L80.6826 30.1993L84.0625 20.0636L78.3398 18.1554L74.96 28.2911L73.585 27.8322L77.3721 16.4767L85.8438 19.3019ZM35.416 23.0304L40.9209 27.4669L39.3066 28.0216L34.7998 24.4034L34.7119 24.4337L33.3809 30.0577L31.7666 30.6124L33.4707 23.6984L27.877 19.2921L29.4912 18.7374L34.0283 22.4435L34.1162 22.4132L35.417 16.7013L37.0312 16.1466L35.416 23.0304ZM51.3848 25.171L49.9082 25.5324L47.9326 22.5255L43.2305 23.6779L42.8691 27.257L41.3936 27.6193L42.8125 14.9464L44.2666 14.5909L51.3848 25.171ZM67.3037 14.0118C68.1875 13.6964 69.1282 13.6489 70.125 13.8693C70.7146 13.9996 71.249 14.2078 71.7285 14.4933C72.2118 14.7797 72.6264 15.1343 72.9717 15.5577C73.3178 15.9774 73.5796 16.4544 73.7568 16.9884C73.9349 17.5186 74.0117 18.0961 73.9854 18.7208L72.5693 18.4083C72.5756 17.9827 72.5083 17.5919 72.3672 17.2374C72.2299 16.884 72.0356 16.5698 71.7852 16.2951C71.5394 16.0174 71.2499 15.7852 70.916 15.5997C70.5819 15.4142 70.2201 15.2793 69.832 15.1935C69.1244 15.0371 68.4435 15.0742 67.79 15.3048C67.1405 15.5364 66.5695 15.9629 66.0771 16.5841C65.5885 17.2063 65.2325 18.0234 65.0088 19.0353C64.7851 20.0473 64.7634 20.9389 64.9443 21.7091C65.1291 22.48 65.4674 23.1073 65.959 23.5909C66.4544 24.0755 67.056 24.3964 67.7637 24.5529C68.1515 24.6386 68.536 24.6672 68.917 24.6398C69.2982 24.6123 69.6588 24.5265 69.998 24.382C70.3418 24.2345 70.6503 24.0294 70.9238 23.7667C71.202 23.5011 71.4278 23.1758 71.6006 22.7911L73.0166 23.1036C72.778 23.6774 72.4649 24.1697 72.0791 24.5792C71.6935 24.9885 71.255 25.3125 70.7637 25.5509C70.2729 25.7856 69.7475 25.9305 69.1885 25.9865C68.6332 26.0433 68.0604 26.0074 67.4707 25.8771C66.474 25.6568 65.6411 25.2172 64.9727 24.5587C64.3042 23.9002 63.8463 23.0725 63.5996 22.0763C63.3529 21.08 63.3662 19.9652 63.6387 18.7326C63.9112 17.4998 64.3691 16.4832 65.0127 15.6837C65.6562 14.8844 66.4201 14.3273 67.3037 14.0118ZM56.6982 12.3995C57.3018 12.3805 57.8712 12.45 58.4062 12.6085C58.9452 12.7669 59.434 13.0089 59.873 13.3341C60.312 13.6555 60.6839 14.0536 60.9873 14.5275C61.2904 14.9973 61.5064 15.5379 61.6348 16.1495L60.1855 16.1954C60.0867 15.7815 59.9253 15.4201 59.7012 15.1115C59.4809 14.8027 59.2158 14.5456 58.9053 14.3409C58.5985 14.1323 58.2601 13.9795 57.8906 13.882C57.5211 13.7845 57.1374 13.7415 56.7402 13.754C56.016 13.7769 55.3655 13.9808 54.7891 14.3654C54.2165 14.7498 53.7685 15.3041 53.4443 16.0275C53.1241 16.751 52.98 17.6312 53.0127 18.6671C53.0454 19.7029 53.2443 20.5717 53.6094 21.2736C53.9784 21.9753 54.461 22.5001 55.0566 22.8478C55.6563 23.1953 56.3186 23.3579 57.043 23.3351C57.4401 23.3225 57.8201 23.2564 58.1826 23.1359C58.5452 23.0153 58.8729 22.8429 59.166 22.6193C59.4629 22.3916 59.7117 22.1162 59.9121 21.7941C60.1161 21.468 60.2545 21.0972 60.3271 20.6818L61.7764 20.6368C61.6866 21.2516 61.5053 21.8051 61.2324 22.297C60.9595 22.789 60.614 23.2113 60.1963 23.5636C59.7785 23.912 59.3053 24.1821 58.7773 24.3742C58.2532 24.5661 57.6886 24.6715 57.085 24.6906C56.0648 24.7226 55.1499 24.5018 54.3398 24.0284C53.5296 23.555 52.8821 22.8658 52.3975 21.9611C51.9128 21.0563 51.6501 19.9729 51.6104 18.7111C51.5706 17.4493 51.7648 16.3515 52.1914 15.4181C52.6181 14.4848 53.2204 13.756 53.999 13.2326C54.7778 12.709 55.6779 12.4317 56.6982 12.3995ZM43.9453 16.6193L43.3682 22.3204L47.1826 21.3849L44.0361 16.5968L43.9453 16.6193Z" fill="black"/>
</svg>
