<svg width="120" height="120" viewBox="0 0 120 120" fill="none" xmlns="http://www.w3.org/2000/svg">
<path d="M60 15.6016C84.5214 15.6016 104.4 35.4805 104.4 60.002C104.4 84.5232 84.5213 104.401 60 104.401C35.4787 104.401 15.5998 84.5232 15.5996 60.002C15.5996 35.4805 35.4786 15.6016 60 15.6016ZM60 18.252C36.9425 18.252 18.251 36.9445 18.251 60.002C18.2512 83.0592 36.9427 101.751 60 101.751C83.0574 101.751 101.749 83.0592 101.749 60.002C101.749 36.9445 83.0575 18.252 60 18.252ZM47.1182 67.4268C47.669 67.4268 48.1598 67.5651 48.585 67.8438L48.7402 67.9541C49.0907 68.2227 49.3685 68.5794 49.5742 69.0205L49.6572 69.2139C49.8372 69.6749 49.9257 70.2029 49.9258 70.7939C49.9257 71.3897 49.8372 71.921 49.6572 72.3848L49.5742 72.5791C49.3393 73.083 49.0112 73.4778 48.5898 73.7588V73.7598C48.1674 74.0385 47.6804 74.1767 47.1348 74.1768C46.7186 74.1767 46.3734 74.1073 46.1074 73.9609H46.1064C45.8531 73.8186 45.6527 73.6543 45.5098 73.4668H45.5088C45.4377 73.3719 45.3756 73.2844 45.3213 73.2061V76.4131H44.1299V67.5098H45.2891V68.4316C45.3484 68.3459 45.4195 68.2475 45.501 68.1377L45.6162 68.001C45.7002 67.9134 45.7983 67.8315 45.9092 67.7559L46.0859 67.6465C46.3497 67.497 46.6972 67.4268 47.1182 67.4268ZM66.0908 67.584L67.7627 72.4092L69.4346 67.584L69.46 67.5098H70.75L70.6953 67.6582L68.0146 74.8936C67.8908 75.2285 67.7356 75.5109 67.5479 75.7363L67.5469 75.7354C67.406 75.9064 67.2474 76.0464 67.0703 76.1523L66.8867 76.2471C66.6378 76.3583 66.3589 76.413 66.0527 76.4131C65.8833 76.4131 65.7292 76.3982 65.5918 76.3691V76.3701C65.4631 76.3455 65.3602 76.3183 65.2959 76.2861L65.2139 76.2451L65.2393 76.1572L65.4863 75.3018L65.5156 75.1992L65.6191 75.2256C65.8464 75.2837 66.0422 75.3031 66.207 75.2881L66.3174 75.2676C66.4253 75.2369 66.5256 75.1752 66.6182 75.0791L66.6201 75.0771L66.7139 74.9658C66.8069 74.8378 66.8988 74.6584 66.9854 74.4229L67.1514 73.9678L64.8311 67.6582L64.7764 67.5098H66.0654L66.0908 67.584ZM63.2803 72.9199H64.25V75.8535H63.0596V74.0449H58.6094V75.8535H57.4189V72.9199H58.0039C58.1141 72.8007 58.2126 72.6745 58.2939 72.5381L58.3574 72.4219C58.4194 72.3002 58.4755 72.1613 58.5254 72.0059L58.5264 72.0049L58.5762 71.8389C58.6241 71.6641 58.6666 71.4616 58.7031 71.2324L58.7725 70.7197C58.7942 70.5329 58.8139 70.3288 58.833 70.1094L59.0469 67.6104L59.0557 67.5098H63.2803V72.9199ZM65.5723 75.4014L65.5918 75.333C65.6688 75.3527 65.7433 75.3664 65.8145 75.3779C65.7432 75.3663 65.6689 75.3517 65.5918 75.332L65.5723 75.4014ZM67.9102 74.8555C67.852 75.0126 67.7873 75.157 67.7158 75.2881C67.7503 75.2251 67.7841 75.1589 67.8154 75.0898L67.9111 74.8555L70.5918 67.6201H70.5908L67.9102 74.8555ZM53.8613 67.4268C54.4493 67.4269 54.9698 67.5677 55.417 67.8516H55.416C55.8649 68.1346 56.2132 68.5315 56.46 69.0391L56.5479 69.2334C56.7387 69.6962 56.8329 70.2226 56.833 70.8096C56.833 71.4753 56.7098 72.0637 56.46 72.5693L56.459 72.5684C56.2122 73.0732 55.8646 73.4699 55.416 73.7529L55.415 73.752C54.968 74.0354 54.4489 74.1766 53.8613 74.1768C53.2732 74.1768 52.7517 74.0365 52.3018 73.7529L52.3008 73.752C51.8551 73.469 51.5072 73.0738 51.2578 72.5693V72.5684C51.0108 72.0628 50.8887 71.4751 50.8887 70.8096C50.8888 70.1388 51.0108 69.5473 51.2578 69.0391L51.3564 68.8535C51.596 68.4342 51.9109 68.0991 52.3008 67.8516H52.3018L52.4736 67.751C52.8827 67.5343 53.3468 67.4268 53.8613 67.4268ZM54.2744 74.041C54.2234 74.0475 54.1715 74.0509 54.1191 74.0547C54.2401 74.0456 54.3577 74.0322 54.4717 74.0098L54.2744 74.041ZM42.5791 74.0449H41.3887V68.6348H38.583V74.0449H37.3926V67.5098H42.5791V74.0449ZM72.9531 70.2559H73.4316L75.668 67.5498L75.7012 67.5098H77.2393L77.0869 67.6904L74.5957 70.6641L77.1221 73.8662L77.2637 74.0449H75.7314L75.6982 74.002L73.6602 71.3809H72.9531V74.0449H71.7617V67.5098H72.9531V70.2559ZM82.9697 68.6348H80.8975V74.0449H79.7061V68.6348H77.6182V67.5098H82.9697V68.6348ZM74.4531 70.6621L77.0352 73.9346L74.4541 70.6621L77.0029 67.6201H77.002L74.4531 70.6621ZM48.2217 73.8379C48.2734 73.8139 48.3251 73.7885 48.375 73.7607L48.4316 73.7246C48.363 73.7654 48.2938 73.8044 48.2217 73.8379ZM52.5039 73.7441C52.5086 73.7467 52.5138 73.7484 52.5186 73.751C52.4648 73.7223 52.4121 73.6918 52.3604 73.6592L52.5039 73.7441ZM56.0518 73.0234C55.9741 73.1252 55.8905 73.2204 55.8008 73.3086L55.9307 73.1719C55.9725 73.1244 56.0129 73.0753 56.0518 73.0244V73.0234ZM47.0029 73.1953C47.0219 73.1953 47.0409 73.1929 47.0596 73.1924C47.0411 73.1928 47.0226 73.1943 47.0039 73.1943L46.9199 73.1914C46.9473 73.1926 46.9749 73.1953 47.0029 73.1953ZM53.8613 73.1943L53.7988 73.1924C53.8192 73.193 53.8396 73.1953 53.8604 73.1953C53.8973 73.1953 53.9339 73.192 53.9697 73.1904C53.9341 73.192 53.898 73.1943 53.8613 73.1943ZM46.6738 73.167C46.7309 73.1767 46.7895 73.1826 46.8496 73.1875C46.7895 73.183 46.7308 73.1766 46.6738 73.167ZM47.0039 68.5195C46.6758 68.5195 46.3988 68.5925 46.1699 68.7334L46.0742 68.7979C45.8252 68.9808 45.6335 69.2399 45.5029 69.5791V69.5801C45.372 69.918 45.3047 70.3168 45.3047 70.7773C45.3047 71.2434 45.3739 71.6507 45.5078 72H45.5068C45.6402 72.345 45.8334 72.6104 46.083 72.8018L46.1787 72.8682C46.4071 73.011 46.6811 73.084 47.0039 73.084C47.3887 73.0838 47.7018 72.9827 47.9502 72.7871L48.0439 72.708C48.2545 72.5153 48.4179 72.2679 48.5322 71.9639V71.9629L48.6211 71.6904C48.6968 71.4101 48.7344 71.1055 48.7344 70.7773C48.7343 70.3449 48.6685 69.9579 48.5371 69.6162L48.5361 69.6152C48.4083 69.2737 48.2155 69.0077 47.96 68.8135L47.959 68.8125C47.7109 68.6197 47.3949 68.5197 47.0039 68.5195ZM53.8613 68.5195C53.5 68.5195 53.2013 68.6016 52.9609 68.7598L52.8613 68.832C52.6317 69.0166 52.4529 69.2527 52.3262 69.541L52.2744 69.668C52.1451 70.019 52.0802 70.3997 52.0801 70.8096C52.0801 71.2196 52.1452 71.599 52.2744 71.9473L52.3262 72.0732C52.4528 72.3594 52.6307 72.593 52.8604 72.7754L52.96 72.8467C53.2005 73.0032 53.4994 73.084 53.8613 73.084C54.2745 73.0839 54.6054 72.9786 54.8613 72.7754L54.9561 72.6934C55.1709 72.4965 55.3354 72.2485 55.4473 71.9473L55.5322 71.6807C55.6051 71.408 55.6416 71.1171 55.6416 70.8096C55.6415 70.5024 55.605 70.2115 55.5322 69.9375L55.4473 69.668C55.3353 69.3644 55.171 69.1142 54.9561 68.915L54.8604 68.832C54.6044 68.6264 54.2741 68.5197 53.8613 68.5195ZM46.2295 73.0234C46.2387 73.0281 46.2485 73.0316 46.2578 73.0361C46.2106 73.0134 46.1644 72.9896 46.1201 72.9619L46.2295 73.0234ZM47.7686 73.0303C47.7798 73.0247 47.7917 73.0205 47.8027 73.0146L47.8164 73.0068C47.8008 73.0153 47.7845 73.0224 47.7686 73.0303ZM63.1689 73.0303H63.1699V67.6201H63.1689V73.0303ZM60.0068 70.1309C59.9553 70.6279 59.8946 71.0792 59.8242 71.4834L59.75 71.8721C59.665 72.2856 59.5362 72.636 59.3633 72.9199H62.0889V68.6348H60.1611L60.0068 70.1309ZM52.792 72.8623C52.805 72.8726 52.8196 72.8808 52.833 72.8906L52.792 72.8613C52.7366 72.8173 52.6845 72.7702 52.6348 72.7207C52.6845 72.7702 52.7365 72.8183 52.792 72.8623ZM54.9297 72.8613L54.918 72.8701C54.9217 72.8673 54.926 72.8652 54.9297 72.8623C54.9887 72.8154 55.0432 72.764 55.0957 72.7109C55.0433 72.7639 54.9885 72.8146 54.9297 72.8613ZM67.7295 72.6523H67.7949V72.6514H67.7295L65.9873 67.6201H65.9863L67.7295 72.6523ZM49.4736 72.5332C49.4664 72.5487 49.4586 72.5638 49.4512 72.5791L49.4746 72.5322C49.5016 72.474 49.526 72.4142 49.5498 72.3535C49.5259 72.4145 49.5008 72.4747 49.4736 72.5332ZM58.501 72.375C58.526 72.32 58.55 72.2623 58.5732 72.2021C58.5504 72.2623 58.5259 72.32 58.501 72.375ZM59.6416 71.8506C59.6283 71.9151 59.614 71.9779 59.5986 72.0391C59.5993 72.0362 59.6009 72.0331 59.6016 72.0303L59.6426 71.8506C59.6514 71.8078 59.6575 71.7638 59.666 71.7197C59.6575 71.7639 59.6504 71.8077 59.6416 71.8506ZM49.8154 70.7939C49.8154 70.9578 49.8076 71.1164 49.7939 71.2695C49.8007 71.1944 49.8071 71.1177 49.8105 71.04L49.8154 70.7939ZM51.0186 71.2559C51.0187 71.2575 51.0194 71.2591 51.0195 71.2607C51.0132 71.1918 51.0082 71.1218 51.0049 71.0508L51.0186 71.2559ZM56.7002 70.3516C56.7141 70.4997 56.7217 70.6527 56.7217 70.8105C56.7217 70.9652 56.7147 71.1153 56.7012 71.2607C56.7076 71.1919 56.7134 71.1217 56.7168 71.0508L56.7227 70.8096C56.7226 70.6521 56.7141 70.4995 56.7002 70.3516ZM45.207 71.125C45.2088 71.1477 45.2127 71.17 45.2148 71.1924C45.2127 71.1698 45.2098 71.1469 45.208 71.124L45.1943 70.7773L45.207 71.125ZM59.8965 70.1201C59.8879 70.2025 59.8782 70.2835 59.8691 70.3633L59.8975 70.1191L60.0615 68.5244L59.8965 70.1201ZM45.3994 69.54C45.3807 69.5884 45.3629 69.6379 45.3467 69.6885C45.3481 69.684 45.3501 69.6792 45.3516 69.6748L45.4004 69.54C45.4286 69.4667 45.4594 69.3967 45.4932 69.3301C45.4593 69.3968 45.4277 69.4666 45.3994 69.54ZM25.0986 60.8838C25.0986 60.8838 26.0751 62.1577 28.6328 62.8721C30.2729 63.3301 33.3914 62.7188 34.4863 63.7559C36.5848 65.7439 36.6953 67.9531 36.6953 67.9531C36.6706 67.9533 34.7821 67.9671 33.6025 67.7314C31.9703 67.4051 29.7414 65.9675 29.7373 65.9648C29.743 65.9703 31.1727 67.3528 32.2773 67.9531C33.5038 68.6195 35.6729 69.052 35.7012 69.0576C35.661 69.0718 32.6947 70.1146 30.6211 69.0576C27.5498 67.4919 25.0986 60.8838 25.0986 60.8838ZM49.4736 69.0674C49.5286 69.1852 49.5765 69.3084 49.6182 69.4365C49.5981 69.3747 49.5779 69.3133 49.5547 69.2539L49.4746 69.0674C49.4472 69.0087 49.4177 68.952 49.3877 68.8965C49.4176 68.9519 49.4463 69.0088 49.4736 69.0674ZM52.5957 68.9287C52.5801 68.9454 52.5658 68.9632 52.5508 68.9805C52.595 68.9297 52.641 68.8798 52.6904 68.834L52.5957 68.9287ZM45.9043 68.793C45.8562 68.8349 45.8108 68.8799 45.7676 68.9277C45.8108 68.8799 45.8563 68.8348 45.9043 68.793ZM82.8584 68.5244H82.8594V67.6201H82.8584V68.5244ZM53.5498 68.4307C53.5429 68.4316 53.5361 68.4335 53.5293 68.4346C53.5853 68.4256 53.6429 68.4191 53.7021 68.415L53.5498 68.4307ZM45.5889 68.2031L45.5273 68.2881C45.5471 68.261 45.5675 68.2329 45.5889 68.2041C45.6182 68.1647 45.6505 68.1262 45.6855 68.0889C45.6505 68.126 45.6181 68.1639 45.5889 68.2031ZM55.3574 67.9453C55.4595 68.0097 55.5561 68.0805 55.6475 68.1572C55.6043 68.1209 55.5603 68.0853 55.5146 68.0518L55.3574 67.9443C55.305 67.9111 55.2509 67.8807 55.1963 67.8516C55.2509 67.8808 55.305 67.912 55.3574 67.9453ZM48.7256 68.085C48.7079 68.0705 48.691 68.0549 48.6729 68.041L48.5244 67.9365C48.5944 67.9824 48.661 68.0324 48.7256 68.085ZM52.3604 67.9443C52.3324 67.9621 52.3055 67.9823 52.2783 68.001C52.3055 67.9823 52.3324 67.963 52.3604 67.9453C52.414 67.9115 52.4685 67.8792 52.5244 67.8496L52.3604 67.9443ZM45.8584 67.9307C45.852 67.9357 45.8461 67.9412 45.8398 67.9463C45.8812 67.9126 45.925 67.8795 45.9717 67.8477L45.8584 67.9307ZM52.874 67.6963C52.8136 67.7175 52.7545 67.7412 52.6963 67.7666L52.874 67.6973C52.9342 67.6761 52.9953 67.6566 53.0576 67.6396L52.874 67.6963ZM53.6504 67.5439L53.8604 67.5381C53.9979 67.5381 54.1315 67.5457 54.2607 67.5615C54.1985 67.5539 54.1354 67.5479 54.0713 67.5439L53.8613 67.5371C53.7901 67.5371 53.7195 67.5397 53.6504 67.5439ZM47.1182 67.5371C46.9898 67.5371 46.8697 67.5441 46.7578 67.5576L46.9316 67.543C46.9917 67.5396 47.0539 67.5381 47.1182 67.5381C47.2014 67.5381 47.2831 67.5413 47.3633 67.5479C47.3474 67.5466 47.3314 67.545 47.3154 67.5439L47.1182 67.5371ZM44.1465 53.7832L45.8184 58.6094L47.4902 53.7832L47.5156 53.709H48.8057L48.751 53.8584L46.0703 61.0938C45.9774 61.3449 45.8669 61.5668 45.7383 61.7568L45.6035 61.9355C45.4626 62.1068 45.3032 62.2465 45.126 62.3525L44.9424 62.4473C44.6935 62.5585 44.4146 62.6132 44.1084 62.6133C43.939 62.6133 43.7848 62.5984 43.6475 62.5693V62.5703C43.5187 62.5457 43.4159 62.5185 43.3516 62.4863L43.2695 62.4453L43.2949 62.3564L43.542 61.502L43.5713 61.3984L43.6748 61.4258C43.9021 61.4839 44.0979 61.5033 44.2627 61.4883L44.373 61.4678C44.481 61.4371 44.5813 61.3754 44.6738 61.2793L44.6758 61.2773L44.7695 61.166C44.8626 61.038 44.9544 60.8586 45.041 60.623L45.207 60.167L42.8867 53.8574L42.832 53.709H44.1211L44.1465 53.7832ZM52.8057 53.627C53.3563 53.6271 53.8464 53.7654 54.2715 54.0439L54.4268 54.1533C54.7775 54.422 55.0549 54.7794 55.2607 55.2207L55.3438 55.4141C55.5237 55.875 55.6122 56.4023 55.6123 56.9932C55.6123 57.674 55.4972 58.2712 55.2617 58.7793H55.2607C55.0258 59.2831 54.6977 59.678 54.2764 59.959V59.96C53.8541 60.2386 53.3677 60.3768 52.8223 60.377C52.406 60.377 52.0599 60.3075 51.7939 60.1611H51.793C51.5396 60.0188 51.3392 59.8545 51.1963 59.667V59.666C51.1252 59.5712 51.0621 59.4846 51.0078 59.4062V62.6133H49.8174V53.709H50.9756V54.6338C51.0352 54.5477 51.1055 54.4483 51.1875 54.3379L51.3027 54.2012C51.4288 54.0697 51.5864 53.9515 51.7725 53.8467L51.875 53.7949C52.1241 53.6811 52.4368 53.627 52.8057 53.627ZM44.8975 62.3467L45.0264 62.2822C45.0358 62.277 45.0444 62.2701 45.0537 62.2646C45.0028 62.2944 44.9514 62.3228 44.8975 62.3467ZM45.5176 61.8662C45.4327 61.9693 45.3401 62.0581 45.2422 62.1357C45.2887 62.0988 45.3353 62.0602 45.3789 62.0176L45.5186 61.8652L45.5176 61.8662ZM44.2725 61.5977L44.1318 61.6035C44.1804 61.6042 44.2274 61.6027 44.2725 61.5986C44.2841 61.5976 44.2952 61.5934 44.3066 61.5918C44.2952 61.5934 44.284 61.5966 44.2725 61.5977ZM43.6279 61.6016L43.6475 61.5332C43.7203 61.5518 43.7908 61.5649 43.8584 61.5762C43.7907 61.5648 43.7203 61.5509 43.6475 61.5322L43.6279 61.6016ZM45.9658 61.0557C45.9081 61.2118 45.8434 61.355 45.7725 61.4854C45.8065 61.4229 45.8401 61.3575 45.8711 61.2891L45.9668 61.0557L47.9707 55.6455L45.9658 61.0557ZM44.6748 61.4258C44.7014 61.4046 44.728 61.3823 44.7529 61.3564L44.7539 61.3555L44.6748 61.4258ZM33.6904 53.627C33.9017 53.627 34.1425 53.6529 34.4102 53.7031H34.4092C34.6888 53.7523 34.9577 53.8545 35.2148 54.0088L35.3135 54.0723C35.538 54.2293 35.7253 54.4471 35.876 54.7207L35.9375 54.8457C36.0717 55.148 36.1357 55.5261 36.1357 55.9736V60.2451H34.9453V59.5801C34.9209 59.6118 34.8951 59.6447 34.8672 59.6768L34.7559 59.7969C34.6317 59.9233 34.478 60.0336 34.2979 60.1289L34.1084 60.2197C33.8362 60.3368 33.5091 60.3925 33.1318 60.3926C32.7694 60.3926 32.4334 60.3327 32.126 60.2119L31.9951 60.1562C31.6516 59.9946 31.3763 59.7612 31.1729 59.4561V59.4551C30.9672 59.1435 30.8662 58.7704 30.8662 58.3418C30.8663 57.9667 30.9407 57.6509 31.0977 57.4033L31.2217 57.2305C31.3555 57.0676 31.5189 56.9343 31.71 56.8311C31.9579 56.6972 32.2308 56.5972 32.5273 56.5322L32.9688 56.4434C33.1164 56.417 33.2648 56.3934 33.4131 56.374L34.3486 56.2627L34.5117 56.2402C34.6598 56.2143 34.7651 56.1801 34.832 56.1416L34.833 56.1406L34.8799 56.1055C34.9208 56.0642 34.9453 56.0024 34.9453 55.9082V55.875C34.9452 55.4902 34.8396 55.2063 34.6436 55.0078V55.0068C34.4526 54.8112 34.153 54.7032 33.7236 54.7031C33.3316 54.7031 33.0245 54.7786 32.7949 54.9199L32.7012 54.9844C32.4482 55.1794 32.2762 55.383 32.1787 55.5928L32.1367 55.6846L32.042 55.6504L31.1211 55.3213L31.0098 55.2822L31.0566 55.1738C31.2269 54.7768 31.4568 54.4616 31.748 54.2344L31.9688 54.0781C32.1946 53.9348 32.4359 53.8294 32.6914 53.7627L32.9443 53.7031C33.1955 53.6525 33.4445 53.627 33.6904 53.627ZM59.3994 53.627C59.6107 53.627 59.8515 53.6529 60.1191 53.7031H60.1182C60.3978 53.7522 60.6666 53.8545 60.9238 54.0088L61.0225 54.0723C61.247 54.2293 61.4343 54.447 61.585 54.7207L61.6465 54.8457C61.7807 55.148 61.8456 55.5261 61.8457 55.9736V60.2451H60.6543V59.5801C60.6299 59.6118 60.604 59.6447 60.5762 59.6768L60.4648 59.7969C60.3406 59.9232 60.187 60.0336 60.0068 60.1289L59.8174 60.2197C59.5452 60.3368 59.2182 60.3925 58.8408 60.3926C58.4266 60.3926 58.0473 60.3144 57.7051 60.1562H57.7041C57.3606 59.9946 57.0853 59.7613 56.8818 59.4561V59.4551C56.6762 59.1435 56.5762 58.7704 56.5762 58.3418C56.5763 57.9668 56.6497 57.6509 56.8066 57.4033L56.9307 57.2305C57.0645 57.0676 57.2279 56.9343 57.4189 56.8311C57.6668 56.6972 57.9399 56.5972 58.2363 56.5322L58.6787 56.4434C58.826 56.4171 58.974 56.3934 59.1221 56.374L60.0576 56.2627L60.2207 56.2402C60.3688 56.2143 60.4741 56.1801 60.541 56.1416L60.542 56.1406L60.5889 56.1055C60.6299 56.0642 60.6543 56.0025 60.6543 55.9082V55.875C60.6542 55.4905 60.5493 55.2063 60.3535 55.0078L60.3525 55.0068C60.1616 54.8112 59.8621 54.7032 59.4326 54.7031C59.0405 54.7031 58.7335 54.7785 58.5039 54.9199L58.4102 54.9844C58.1574 55.1793 57.9862 55.3832 57.8887 55.5928L57.8457 55.6846L57.751 55.6504L56.8301 55.3213L56.7197 55.2822L56.7656 55.1738C56.9359 54.7768 57.1658 54.4616 57.457 54.2344L57.6777 54.0781C57.9038 53.9346 58.1455 53.8294 58.4014 53.7627L58.6533 53.7031C58.9045 53.6525 59.1535 53.627 59.3994 53.627ZM23.9648 55.3535H28.2334V51.6045H29.4736V60.2451H28.2334V56.4795H23.9648V60.2451H22.7246V51.6045H23.9648V55.3535ZM42.1787 54.835H40.1064V60.2451H38.915V54.835H36.8271V53.709H42.1787V54.835ZM68.665 60.2451H67.4736V54.835H65.3711L65.2773 56.9824C65.2553 57.5036 65.208 57.9657 65.1357 58.3662C65.0659 58.7655 64.9568 59.1062 64.8076 59.3848L64.8066 59.3838C64.6584 59.6656 64.4589 59.8824 64.2061 60.0283C63.952 60.1747 63.6397 60.2451 63.2754 60.2451H62.8359V59.1191H63.1768C63.351 59.1191 63.4872 59.0845 63.5918 59.0234C63.6909 58.9629 63.7806 58.8536 63.8516 58.6787V58.6777L63.9043 58.5293C63.9538 58.3668 63.995 58.1603 64.0254 57.9092V57.9082L64.0557 57.6377C64.0836 57.3489 64.1048 57.0066 64.1191 56.6113V56.6104L64.2344 53.8154L64.2383 53.709H68.665V60.2451ZM71.415 55.9951H72.9824C73.7398 55.9953 74.337 56.1878 74.7559 56.5889L74.9023 56.7432C75.2199 57.1144 75.3778 57.5677 75.3779 58.0957C75.3779 58.442 75.3077 58.7636 75.166 59.0576L75.1006 59.1816C74.9141 59.508 74.6402 59.7675 74.2842 59.96L74.2832 59.9609C73.9238 60.1521 73.4883 60.245 72.9824 60.2451H70.2236V53.709H71.415V55.9951ZM77.8252 56.4229H80.6299V53.709H81.8213V60.2451H80.6299V57.5479H77.8252V60.2451H76.6348V53.709H77.8252V56.4229ZM84.5635 55.9951H86.1309C86.8885 55.9952 87.4864 56.1876 87.9053 56.5889L88.0508 56.7432C88.3684 57.1144 88.5263 57.5677 88.5264 58.0957C88.5263 58.4421 88.4562 58.7636 88.3145 59.0576L88.249 59.1816C88.0625 59.508 87.7886 59.7675 87.4326 59.96V59.9609C87.0731 60.1523 86.637 60.245 86.1309 60.2451H83.3721V53.709H84.5635V55.9951ZM90.5 60.2451H89.3086V53.709H90.5V60.2451ZM93.2461 58.3174L96.085 53.7617L96.1172 53.709H97.4072V60.2451H96.2158V55.6377L93.3945 60.1924L93.3623 60.2451H92.0557V53.709H93.2461V58.3174ZM33.6582 60.2373C33.7293 60.2243 33.7981 60.2094 33.8633 60.1904L33.8711 60.1875C33.8034 60.2073 33.7323 60.2236 33.6582 60.2373ZM59.3672 60.2373C59.4383 60.2243 59.5071 60.2094 59.5723 60.1904L59.5801 60.1875C59.5124 60.2073 59.4413 60.2236 59.3672 60.2373ZM64.3447 53.8203H68.5537V60.1348H68.5547V53.8193H64.3447V53.8203ZM96.1777 53.8203H97.2959V60.1348H97.2969V53.8193H96.1787L96.1777 53.8203ZM63.5273 60.1221L63.6738 60.1016C63.6921 60.0983 63.7097 60.0926 63.7275 60.0889C63.6634 60.1025 63.597 60.1148 63.5273 60.1221ZM64.0244 59.9961C64.0366 59.9907 64.0496 59.9861 64.0615 59.9805L64.1084 59.9551C64.0811 59.9695 64.0533 59.9834 64.0244 59.9961ZM31.7031 59.8564C31.7165 59.8663 31.7305 59.8753 31.7441 59.8848C31.695 59.8505 31.6476 59.8147 31.6025 59.7764L31.7031 59.8564ZM57.4121 59.8564C57.4254 59.8663 57.4395 59.8753 57.4531 59.8848C57.404 59.8505 57.3566 59.8147 57.3115 59.7764L57.4121 59.8564ZM60.583 59.4922C60.5282 59.5655 60.4625 59.6416 60.3857 59.7197C60.3713 59.7344 60.3552 59.7475 60.3398 59.7617L60.3867 59.7197C60.4631 59.6419 60.5285 59.5664 60.583 59.4932V59.4922ZM52.3604 59.3672C52.4171 59.3768 52.4754 59.3831 52.5352 59.3877C52.4754 59.3832 52.417 59.3768 52.3604 59.3672ZM34.8154 57.2021L34.8135 57.2031C34.6719 57.2427 34.5086 57.277 34.3252 57.3076L34.3242 57.3086C34.1454 57.3361 33.9696 57.3608 33.7988 57.3828H33.7979L33.3926 57.4316C33.1471 57.4637 32.9177 57.5165 32.7061 57.5879H32.7051C32.5545 57.6375 32.4275 57.7058 32.3232 57.791L32.2256 57.8828C32.1178 57.9997 32.0577 58.1653 32.0576 58.3916C32.0577 58.6971 32.1699 58.916 32.3857 59.0654C32.6149 59.2191 32.9101 59.3008 33.2793 59.3008C33.6485 59.3007 33.9519 59.2277 34.1943 59.0889H34.1953L34.3711 58.9746C34.5341 58.8537 34.6616 58.7108 34.7539 58.5469V58.5459L34.8379 58.377C34.9093 58.2067 34.9453 58.0305 34.9453 57.8486V57.1562C34.9062 57.1721 34.8628 57.1882 34.8154 57.2021ZM60.6279 57.168L60.5244 57.2021L60.5234 57.2031C60.3818 57.2428 60.2178 57.277 60.0342 57.3076L60.0332 57.3086C59.8545 57.3361 59.6794 57.3608 59.5088 57.3828H59.5068L59.1016 57.4316C58.9174 57.4557 58.7422 57.4909 58.5771 57.5371L58.415 57.5879C58.2139 57.6541 58.0542 57.7526 57.9346 57.8818L57.9355 57.8828C57.8276 57.9998 57.7667 58.1651 57.7666 58.3916C57.7667 58.6966 57.8775 58.915 58.0928 59.0645L58.1816 59.1191C58.3971 59.2382 58.6644 59.3007 58.9883 59.3008C59.3576 59.3007 59.6619 59.2278 59.9043 59.0889L60.0801 58.9746C60.2431 58.8537 60.3705 58.7109 60.4629 58.5469V58.5459L60.5469 58.377C60.6183 58.2067 60.6543 58.0305 60.6543 57.8486V57.1562C60.6457 57.1597 60.6369 57.1645 60.6279 57.168ZM52.6904 54.7197C52.3154 54.7197 52.0079 54.8149 51.7617 54.998H51.7607C51.5117 55.181 51.321 55.4401 51.1904 55.7793H51.1895C51.0584 56.1173 50.9922 56.5168 50.9922 56.9775C50.9922 57.4434 51.0605 57.85 51.1943 58.1992L51.2471 58.3252C51.3767 58.6099 51.5511 58.8345 51.7695 59.002H51.7705C52.017 59.188 52.3214 59.2842 52.6904 59.2842C53.0755 59.2841 53.3892 59.1831 53.6377 58.9873L53.7305 58.9082C53.9412 58.7154 54.1043 58.4674 54.2188 58.1631L54.3076 57.8906C54.3834 57.6103 54.4218 57.3058 54.4219 56.9775C54.4218 56.5451 54.355 56.158 54.2236 55.8164L54.2227 55.8154C54.0949 55.4739 53.9029 55.2079 53.6475 55.0137L53.6465 55.0127C53.3982 54.8196 53.0817 54.7198 52.6904 54.7197ZM32.5225 59.2676C32.533 59.2723 32.544 59.2758 32.5547 59.2803C32.5078 59.2607 32.4623 59.2398 32.4189 59.2158L32.5225 59.2676ZM58.2324 59.2676C58.2397 59.2708 58.2475 59.2732 58.2549 59.2764C58.2112 59.2578 58.1686 59.2383 58.1279 59.2158L58.2324 59.2676ZM53.4453 59.2354C53.4599 59.2283 53.475 59.2224 53.4893 59.2148L53.5029 59.207C53.4841 59.2172 53.4646 59.226 53.4453 59.2354ZM63.3125 59.2227L63.1768 59.2305L63.3125 59.2236C63.3558 59.219 63.3972 59.2124 63.4365 59.2031L63.3125 59.2227ZM60.5586 58.6006C60.4244 58.8388 60.2245 59.0339 59.959 59.1846C59.934 59.1989 59.9079 59.2126 59.8818 59.2256C59.9077 59.2127 59.9332 59.1997 59.958 59.1855C60.2238 59.0348 60.4243 58.84 60.5586 58.6016V58.6006ZM34.8496 58.6006C34.7155 58.8388 34.5154 59.0339 34.25 59.1846C34.2418 59.1893 34.2329 59.1937 34.2246 59.1982C34.2327 59.1938 34.2411 59.1901 34.249 59.1855C34.5149 59.0348 34.7153 58.84 34.8496 58.6016V58.6006ZM51.7031 59.0908C51.7206 59.104 51.7397 59.1148 51.7578 59.127L51.7031 59.0898C51.6697 59.0642 51.6369 59.0378 51.6055 59.0098L51.7031 59.0908ZM71.415 59.1191H72.9824C73.3454 59.119 73.6345 59.0241 73.8574 58.8408C74.0784 58.6589 74.1875 58.4291 74.1875 58.1445C74.1874 57.8416 74.0766 57.5994 73.8555 57.4102C73.6325 57.2196 73.3443 57.1203 72.9824 57.1201H71.415V59.1191ZM84.5635 59.1191H86.1309C86.4939 59.119 86.7829 59.0241 87.0059 58.8408C87.2269 58.6589 87.3359 58.4291 87.3359 58.1445C87.3358 57.8416 87.2251 57.5994 87.0039 57.4102C86.781 57.2196 86.4927 57.1202 86.1309 57.1201H84.5635V59.1191ZM64.8828 58.9219C64.8633 58.9798 64.843 59.0359 64.8213 59.0898C64.8648 58.982 64.904 58.8661 64.9385 58.7422L64.8828 58.9219ZM73.6885 59.0781C73.7328 59.0561 73.7751 59.0312 73.8164 59.0049C73.7752 59.0313 73.7327 59.0562 73.6885 59.0781ZM86.8369 59.0781C86.8812 59.0561 86.9234 59.0311 86.9648 59.0049C86.9237 59.0313 86.8811 59.0562 86.8369 59.0781ZM87.0762 58.9258L87.0459 58.9473C87.0556 58.9399 87.0668 58.9345 87.0762 58.9268C87.0942 58.9119 87.1102 58.8953 87.127 58.8799C87.1104 58.8952 87.094 58.9111 87.0762 58.9258ZM42.9902 53.8203H44.042L45.7852 58.8525H45.8506V58.8516H45.7852L44.042 53.8193H42.9902V53.8203ZM54.168 58.5283C54.1982 58.4753 54.226 58.4201 54.2529 58.3633C54.2262 58.4201 54.1981 58.4754 54.168 58.5283ZM65.0752 58.0391C65.0605 58.1454 65.0442 58.248 65.0264 58.3467C65.0207 58.3791 65.014 58.4109 65.0078 58.4424C65.0141 58.4105 65.0216 58.3785 65.0273 58.3457C65.0629 58.1485 65.092 57.9359 65.1152 57.708L65.0752 58.0391ZM55.501 56.998C55.5009 57.1619 55.4943 57.3204 55.4805 57.4736C55.4873 57.3973 55.4936 57.3192 55.4971 57.2402L55.501 56.998ZM65.166 56.9775C65.1605 57.107 65.1541 57.2327 65.1455 57.3545L65.167 56.9775L65.2656 54.7246H65.2646L65.166 56.9775ZM50.8809 56.9775C50.8809 57.0887 50.886 57.1967 50.8936 57.3018L50.8818 56.9775C50.8818 56.8957 50.8855 56.8156 50.8896 56.7373C50.8855 56.8156 50.8809 56.8956 50.8809 56.9775ZM34.3066 57.1992C34.1287 57.2266 33.9549 57.2515 33.7852 57.2734L34.3076 57.1992C34.3238 57.1965 34.3396 57.1922 34.3555 57.1895C34.3393 57.1923 34.3231 57.1965 34.3066 57.1992ZM60.0156 57.1992C59.8377 57.2266 59.6639 57.2515 59.4941 57.2734L60.0166 57.1992C60.0328 57.1965 60.0486 57.1922 60.0645 57.1895C60.0484 57.1923 60.0321 57.1965 60.0156 57.1992ZM34.9512 57.0312C34.974 57.0201 34.994 57.0097 35.0107 56.998C34.994 57.0098 34.974 57.0201 34.9512 57.0312ZM59.1367 56.4834C58.8436 56.5217 58.5511 56.5739 58.2607 56.6396L58.0498 56.6934C57.9875 56.7113 57.926 56.7316 57.8662 56.7529C57.9921 56.708 58.1237 56.6706 58.2607 56.6406C58.5511 56.5749 58.8427 56.5227 59.1357 56.4844C59.4627 56.4423 59.7375 56.4099 59.959 56.3857L59.1367 56.4834ZM33.4277 56.4834L32.9883 56.5518C32.8426 56.5777 32.6967 56.6068 32.5518 56.6396L32.3408 56.6934C32.2808 56.7107 32.2217 56.7305 32.1641 56.751C32.2878 56.7071 32.4172 56.6701 32.5518 56.6406C32.8421 56.5749 33.1337 56.5227 33.4268 56.4844C33.8105 56.435 34.1219 56.3977 34.3604 56.373L33.4277 56.4834ZM74.6797 56.6689L74.5449 56.5527C74.5411 56.5497 74.5371 56.5469 74.5332 56.5439C74.5844 56.5831 74.6334 56.6246 74.6797 56.6689ZM87.8281 56.6689L87.6934 56.5527C87.6895 56.5497 87.6855 56.5469 87.6816 56.5439C87.7328 56.5831 87.7818 56.6246 87.8281 56.6689ZM71.3047 56.1064H72.9814C73.1635 56.1064 73.3351 56.1179 73.4961 56.1406C73.4169 56.1294 73.3353 56.1199 73.251 56.1143L72.9824 56.1055H71.3047V56.1064ZM84.4531 56.1064H86.1299C86.3119 56.1064 86.4836 56.1179 86.6445 56.1406C86.5653 56.1294 86.4837 56.1199 86.3994 56.1143L86.1309 56.1055H84.4531V56.1064ZM55.1611 55.2676C55.2162 55.3857 55.2639 55.5093 55.3057 55.6377C55.2855 55.5755 55.2646 55.5139 55.2412 55.4541L55.1611 55.2666C55.1342 55.2088 55.1046 55.1533 55.0752 55.0986C55.1047 55.1534 55.1341 55.2097 55.1611 55.2676ZM23.8545 55.4648H28.3438V55.4639H23.8545V55.4648ZM51.5059 55.0723C51.4871 55.0912 51.4691 55.111 51.4512 55.1309C51.4972 55.0799 51.5462 55.0317 51.5977 54.9873L51.5059 55.0723ZM53.8125 55.0078C53.8423 55.0342 53.8715 55.0614 53.8994 55.0898C53.8415 55.0309 53.7799 54.976 53.7139 54.9258L53.8125 55.0078ZM35.7783 54.7744C35.8169 54.8444 35.8514 54.9198 35.8809 55.001C35.8671 54.9631 35.8526 54.9261 35.8369 54.8906L35.7793 54.7734C35.7398 54.7018 35.6967 54.6353 35.6523 54.5723C35.6967 54.6353 35.7389 54.7027 35.7783 54.7744ZM61.4883 54.7744C61.5087 54.8116 61.528 54.8503 61.5459 54.8906L61.4883 54.7734C61.4488 54.7018 61.4057 54.6353 61.3613 54.5723C61.4057 54.6353 61.4488 54.7027 61.4883 54.7744ZM49.9277 53.8203H50.8643V54.8232H50.8652V53.8193H49.9277V53.8203ZM36.9375 53.8203H42.0674V54.7246H42.0684V53.8193H36.9375V53.8203ZM51.1074 54.6357C51.0944 54.6542 51.0823 54.673 51.0703 54.6904C51.1277 54.6077 51.1954 54.5127 51.2744 54.4062L51.1074 54.6357ZM52.4053 54.6279C52.3147 54.6404 52.2282 54.6596 52.1455 54.6846L52.2725 54.6523C52.3594 54.6336 52.4501 54.6205 52.5449 54.6143L52.4053 54.6279ZM33.5537 54.5977C33.5104 54.6002 33.4681 54.6049 33.4268 54.6094C33.5204 54.5992 33.619 54.5928 33.7227 54.5928L33.5537 54.5977ZM57.4248 54.4053C57.4197 54.4099 57.4143 54.4152 57.4092 54.4199C57.4342 54.3968 57.4602 54.375 57.4863 54.3535L57.4248 54.4053ZM35.2773 54.1846C35.2678 54.1776 35.2596 54.1688 35.25 54.1621L35.1582 54.1035C35.1994 54.128 35.2384 54.156 35.2773 54.1846ZM60.9707 54.1719C60.9666 54.1689 60.9631 54.165 60.959 54.1621L60.8672 54.1035C60.9027 54.1246 60.9369 54.1478 60.9707 54.1719ZM51.5449 54.1309C51.5386 54.1359 51.5326 54.1414 51.5264 54.1465C51.5677 54.1128 51.6115 54.0797 51.6582 54.0479L51.5449 54.1309ZM58.0156 54.0186C58.0064 54.0229 57.9975 54.0278 57.9883 54.0322C58.0543 54.0003 58.1211 53.971 58.1895 53.9453L58.0156 54.0186ZM34.3887 53.8115C34.4084 53.815 34.4277 53.8202 34.4473 53.8242L34.3896 53.8115C34.2667 53.7885 34.1499 53.772 34.04 53.7598C34.1496 53.772 34.266 53.7885 34.3887 53.8115ZM47.5947 53.8203H48.6465V53.8193H47.5947V53.8203ZM70.334 53.8203H71.3047V53.8193H70.334V53.8203ZM76.7451 53.8203H77.7148V53.8193H76.7451V53.8203ZM80.7412 53.8203H81.7109V53.8193H80.7412V53.8203ZM83.4834 53.8203H84.4531V53.8193H83.4834V53.8203ZM89.4199 53.8203H90.3896V53.8193H89.4199V53.8203ZM92.166 53.8203H93.1357V53.8193H92.166V53.8203ZM60.0986 53.8115L59.8154 53.7666C59.7941 53.7639 59.7728 53.7621 59.752 53.7598C59.8609 53.772 59.9768 53.7887 60.0986 53.8115ZM52.5127 53.751C52.6047 53.7424 52.7021 53.7383 52.8047 53.7383C52.8781 53.7383 52.9505 53.741 53.0215 53.7461C53.015 53.7456 53.0085 53.7446 53.002 53.7441L52.8057 53.7373C52.7028 53.7373 52.6049 53.7424 52.5127 53.751ZM59.1602 53.7461C59.2402 53.7406 59.32 53.7383 59.3994 53.7383C59.4499 53.7383 59.5024 53.7391 59.5566 53.7422H59.5576L59.3994 53.7373C59.3201 53.7373 59.2401 53.7406 59.1602 53.7461ZM33.458 53.7451C33.5357 53.74 33.6134 53.7383 33.6904 53.7383C33.7443 53.7383 33.8003 53.7397 33.8584 53.7432C33.8551 53.743 33.8519 53.7424 33.8486 53.7422L33.6904 53.7373C33.6134 53.7373 33.5357 53.7399 33.458 53.7451ZM94.0518 51.7148C94.0518 51.9064 94.1045 52.0707 94.207 52.2119L94.2451 52.2559C94.3416 52.3527 94.4964 52.4102 94.7314 52.4102C94.9995 52.41 95.1651 52.335 95.2598 52.2109L95.2607 52.21L95.333 52.0996C95.3949 51.9852 95.4268 51.8573 95.4268 51.7148V51.6045H96.5518V51.7148C96.5518 52.1284 96.4253 52.4817 96.1719 52.7676L96.0557 52.8857C95.7235 53.1912 95.2775 53.3378 94.7314 53.3379C94.2603 53.3379 93.863 53.2256 93.5488 52.9932L93.4189 52.8857C93.0905 52.581 92.9268 52.1872 92.9268 51.7148V51.6045H94.0518V51.7148ZM87.6123 44.5381C86.9128 46.0107 85.9552 47.6307 85.9551 50.2812C85.9551 52.5148 83.5257 52.7853 82.0898 53.043C82.0898 53.043 82.3031 49.8639 83.3047 48.1836C84.4331 46.2909 87.6123 44.5381 87.6123 44.5381ZM93.2383 52.4922C93.2464 52.5057 93.255 52.5189 93.2637 52.5322C93.2551 52.5189 93.2464 52.5057 93.2383 52.4922ZM94.7314 52.5205L94.6758 52.5176C94.6937 52.5184 94.7118 52.5215 94.7305 52.5215C94.7665 52.5215 94.8015 52.5201 94.835 52.5176L94.7314 52.5205ZM94.4941 52.498C94.5356 52.5065 94.5796 52.5116 94.626 52.5156C94.5796 52.5121 94.5355 52.5065 94.4941 52.498ZM94.167 52.335C94.1914 52.3594 94.2187 52.3808 94.248 52.4004C94.2189 52.3809 94.1922 52.3592 94.168 52.335L94.1182 52.2783L94.167 52.335ZM93.1523 52.3213C93.1574 52.3333 93.1616 52.3456 93.167 52.3574C93.1616 52.3456 93.1574 52.3333 93.1523 52.3213ZM93.1006 52.1807C93.1028 52.1883 93.106 52.1956 93.1084 52.2031C93.1039 52.1889 93.0998 52.1746 93.0957 52.1602L93.1006 52.1807ZM78.9971 46.7812C79.7428 47.3523 81.2473 50.2397 81.7578 51.2764L81.2139 51.4229C80.8184 50.4526 79.6154 47.7739 78.9971 46.7812ZM70.7129 41.2266C70.7129 41.2266 77.1951 41.4064 79.4385 43.877C81.0339 45.6342 80.9844 49.0684 80.9844 49.0684C80.9803 49.0611 79.937 47.181 78.9971 46.1963C78.1272 45.2851 76.4561 44.208 76.4561 44.208C76.4561 44.208 78.0278 45.9191 78.7764 47.1904C79.4918 48.4057 80.2119 50.5039 80.2119 50.5039C80.1825 50.5046 77.5401 50.5649 76.0146 49.9521C74.3192 49.2709 74.2263 46.9389 73.3643 45.0918C72.3454 42.9085 70.7129 41.2266 70.7129 41.2266Z" fill="url(#paint0_linear_2103_23650)"/>
<defs>
<linearGradient id="paint0_linear_2103_23650" x1="31.4884" y1="89.2583" x2="19.8085" y2="79.946" gradientUnits="userSpaceOnUse">
<stop stop-color="#236A0A"/>
<stop offset="1" stop-color="#6FA24D"/>
</linearGradient>
</defs>
</svg>
