<svg width="120" height="120" viewBox="0 0 120 120" fill="none" xmlns="http://www.w3.org/2000/svg">
<path d="M60.3096 24.5996C77.207 24.5997 88.006 30.34 91.6387 33.7373L92.5879 34.625V52.21L87.6953 48.1729L87.6963 48.1748C87.6956 48.1742 87.6945 48.1726 87.6924 48.1709C87.6845 48.1646 87.6667 48.1511 87.6406 48.1309C87.5876 48.0898 87.4979 48.0209 87.373 47.9307C87.1224 47.7495 86.7309 47.4808 86.2129 47.1641C85.1742 46.529 83.6392 45.7116 81.7051 45.0176C77.9705 43.6775 72.7845 42.8064 66.7334 44.5615L66.1445 44.7393C59.6396 46.7919 56.3033 50.2089 54.543 53.2285C52.7352 56.3296 52.4756 59.2194 52.4756 60.21C52.4756 61.2004 52.735 64.0911 54.543 67.1924C56.3034 70.2119 59.6401 73.6271 66.1445 75.6797L66.7334 75.8584C72.7844 77.6135 77.9705 76.7433 81.7051 75.4033C83.6393 74.7093 85.1742 73.891 86.2129 73.2559C86.7309 72.9391 87.1224 72.6704 87.373 72.4893C87.4978 72.3991 87.5876 72.3311 87.6406 72.29C87.6643 72.2717 87.6806 72.258 87.6895 72.251V72.252L91.6279 69.002H86.2197V52.79H96.9854C97.7545 52.7902 99.695 53.2951 100.958 54.3916C102.42 55.6608 103.2 57.0835 103.2 58.8135C103.2 60.5432 102.42 61.9653 100.958 63.2344C99.695 64.3308 97.6265 64.8367 96.9854 64.8369H92.6914V69.002H92.5879V85.7949L91.6387 86.6826C88.0061 90.0799 77.2072 95.8203 60.3096 95.8203C49.611 95.8203 38.5582 92.8198 30.0947 86.9023C21.5641 80.9379 15.5996 71.933 15.5996 60.21C15.5997 48.4871 21.5643 39.483 30.0947 33.5186C38.5582 27.6011 49.611 24.5996 60.3096 24.5996ZM60.3096 30.5889C50.6315 30.5889 40.826 33.3239 33.5264 38.4277C26.2942 43.4846 21.5899 50.7877 21.5898 60.21C21.5898 69.6325 26.294 76.9363 33.5264 81.9932C40.826 87.097 50.6315 89.831 60.3096 89.8311C74.3743 89.831 83.2425 85.5248 86.5977 83.0771V79.8467C85.7412 80.2541 84.782 80.663 83.7285 81.041C79.0911 82.705 72.5902 83.793 65.0732 81.6143L64.3428 81.3926C56.4304 78.8958 51.8851 74.5262 49.3682 70.209C46.899 65.9734 46.4854 61.9749 46.4854 60.21C46.4854 58.4449 46.899 54.4464 49.3682 50.2109C51.8851 45.8938 56.4304 41.5251 64.3428 39.0283L65.0732 38.8066C72.5903 36.6278 79.0911 37.7149 83.7285 39.3789C84.7818 39.7569 85.7413 40.1649 86.5977 40.5723V37.3418C83.2421 34.894 74.3734 30.5889 60.3096 30.5889ZM87.6924 72.249C87.6917 72.2496 87.6904 72.2504 87.6895 72.251L87.6904 72.25C87.6913 72.2493 87.6926 72.2486 87.6934 72.248L87.6924 72.249ZM84.1689 57.915H78.5947V69.1289H71.5459V57.915H65.9717V52.9805H84.1689V57.915ZM92.7559 60.7354H94.5498C94.5592 60.7353 97.0484 60.7311 97.0488 58.6211C97.0487 56.5106 94.5592 56.5068 94.5498 56.5068H92.7559V60.7354ZM75.0703 44.9717C76.8043 44.9717 78.2099 46.3773 78.21 48.1113C78.2098 49.8452 76.8042 51.2509 75.0703 51.251C73.3364 51.251 71.9309 49.8452 71.9307 48.1113C71.9307 46.3773 73.3363 44.9717 75.0703 44.9717Z" fill="black"/>
</svg>
