<svg width="142" height="54" viewBox="0 0 142 54" fill="none" xmlns="http://www.w3.org/2000/svg">
<path fill-rule="evenodd" clip-rule="evenodd" d="M84.4563 0.829351C80.1657 1.59725 77.4677 2.94575 74.633 5.73893C73.0735 7.27569 72.3022 8.26973 71.554 9.70769C70.1873 12.3342 70.0453 13.2194 70.7781 14.5427C71.095 15.1149 71.4215 15.5833 71.5032 15.5833C71.5849 15.5833 71.7909 14.9628 71.9608 14.2043C72.408 12.2073 73.9529 9.188 75.2944 7.68961C78.6358 3.95755 84.2839 2.08169 90.5203 2.63255C93.628 2.90714 94.5962 3.10068 94.7423 3.47671C94.8058 3.63955 94.6806 4.46069 94.4642 5.30126C93.2273 10.1089 90.7175 14.4175 87.8454 16.6644C84.9477 18.9311 80.8657 20.3796 77.375 20.3796H75.3518L74.9995 21.2113C74.8057 21.6687 74.6471 22.1495 74.6471 22.2797C74.6471 23.0702 79.337 22.6701 82.5481 21.6058C90.0471 19.1206 94.6747 13.4611 96.8859 4.07194C97.4423 1.70925 97.4868 1.79654 95.4973 1.34688C91.4574 0.43341 87.6625 0.255704 84.4563 0.829351ZM52.7636 2.27138C50.9154 2.63711 47.3408 3.77361 46.8164 4.16212C46.501 4.39594 46.564 4.69835 47.2934 6.44711C48.9396 10.3941 50.5276 12.8958 52.8852 15.2554C56.4651 18.8386 59.841 20.1753 65.4468 20.2297C67.1403 20.2463 68.5946 20.1923 68.6788 20.1098C68.7629 20.0273 68.6513 19.5146 68.4305 18.9707L68.0293 17.9814H64.8173C61.2894 17.9814 59.981 17.7143 57.5291 16.4938C55.6709 15.5689 52.7023 12.6248 51.4263 10.4418C50.1546 8.26614 48.8805 5.43436 49.0801 5.22763C49.1669 5.13794 50.1132 4.83217 51.1831 4.54846C53.6839 3.88536 58.0295 3.65682 60.3847 4.06451C62.3994 4.41321 65.1609 5.59503 66.8957 6.85121C67.5608 7.33276 68.1407 7.68673 68.1842 7.63805C68.2277 7.58913 68.44 7.20662 68.6559 6.78765L69.0486 6.02599L68.1086 5.29166C66.6905 4.18418 63.3188 2.68747 61.3188 2.27786C59.1789 1.83971 54.9617 1.83635 52.7636 2.27138ZM81.9227 5.09693C80.4169 6.09769 79.5143 7.9232 79.5116 9.97341C79.5102 10.9137 79.4464 10.9972 78.1108 11.8104C76.1077 13.0299 74.0942 15.2226 71.5248 18.9829C68.2304 23.8043 65.9543 25.6185 62.0641 26.5243C59.1093 27.2123 53.2958 26.6356 49.8458 25.3122C49.6138 25.2233 49.2316 25.4815 48.7958 26.0211L48.1106 26.8701L49.6865 27.5749C52.7522 28.9457 54.9286 29.3669 58.9639 29.37C61.7879 29.3721 62.9132 29.2774 63.9485 28.9496C67.7935 27.733 70.9286 25.2693 73.207 21.6744C77.9749 14.1518 78.8318 13.3939 84.981 11.2627C86.5858 10.7063 88.4459 9.97988 89.1146 9.64821C90.3892 9.01581 92.4511 7.64237 92.3198 7.51311C92.2778 7.47162 91.8676 7.5522 91.4085 7.69201C88.6721 8.52586 81.3005 10.2271 81.1254 10.0653C80.6729 9.64606 81.2574 7.43469 82.2018 5.99361C82.7217 5.20053 83.056 4.55158 82.9449 4.55158C82.8338 4.55158 82.3737 4.79692 81.9227 5.09693ZM59.8242 6.87375C59.8293 6.98143 60.2942 7.39032 60.8576 7.78242L61.8817 8.49516L59.4262 8.78439C56.9302 9.0784 54.3314 9.69954 54.1087 10.0549C54.0411 10.1629 55.7624 10.3036 57.9337 10.3679C62.5703 10.5048 63.6601 10.7998 65.2849 12.3572C66.4622 13.4858 68.4079 16.2862 69.1524 17.9236C69.4068 18.4829 69.6874 18.9407 69.7761 18.9407C70.0076 18.9407 70.7567 17.3239 70.7567 16.8243C70.7567 16.0972 68.5008 12.516 67.2425 11.2454C66.5801 10.5766 65.7048 9.86213 65.2973 9.65757C64.8897 9.45324 64.064 8.93619 63.4622 8.50859C61.8003 7.32797 59.8033 6.43056 59.8242 6.87375ZM60.5444 14.1144L59.2071 14.535L60.0746 14.7022C60.9626 14.8732 62.2131 14.5765 63.0909 13.987C63.5344 13.6887 63.5072 13.6659 62.7262 13.6793C62.2618 13.6875 61.2799 13.8832 60.5444 14.1144ZM85.4673 14.936C84.5825 15.2782 83.6063 15.4139 81.8811 15.4348C80.5771 15.4504 79.5104 15.4957 79.5104 15.5355C79.5102 15.5753 79.8897 15.7641 80.3534 15.9552C82.1158 16.6814 84.8364 16.2528 86.4222 14.9993C87.1339 14.4367 86.8127 14.4153 85.4673 14.936ZM40.0004 17.9778C39.6779 18.4923 39.5872 20.766 39.8506 21.7272C40.2044 23.0176 40.9095 23.8752 42.117 24.4827C43.5333 25.1954 43.7801 24.8367 43.1309 23.0088C42.8515 22.2222 42.7027 21.5787 42.8002 21.5787C42.9965 21.5787 44.0102 23.7879 44.0102 24.2153C44.0102 24.7678 44.4872 24.1685 44.7257 23.3162C45.0547 22.1409 44.6902 20.8538 43.7191 19.7628C42.6468 18.5582 40.3327 17.4476 40.0004 17.9778ZM102.654 18.1066C100.421 19.0616 98.9622 20.8087 98.9622 22.5282C98.9622 23.1426 99.1173 23.8549 99.3072 24.1107C99.6396 24.559 99.6579 24.5527 99.8154 23.934C99.9052 23.581 100.128 23.2356 100.311 23.1663C100.573 23.0673 100.594 23.1685 100.411 23.6443C100.073 24.5189 100.118 24.6964 100.676 24.6964C101.784 24.6964 103.163 23.6052 103.918 22.1303C104.495 21.0051 104.341 18.0138 103.697 17.8294C103.567 17.792 103.097 17.9167 102.654 18.1066ZM16.8274 18.2328C16.2552 18.4592 15.5615 19.7544 15.5615 20.5962C15.5615 20.8557 15.6884 21.3718 15.8436 21.743L16.1254 22.4181L16.2691 21.7296L16.4126 21.0411L17.5556 22.4941C18.7893 24.0625 20.6577 25.636 22.2197 26.4219C24.4465 27.5423 25.832 27.8764 28.4485 27.9234C30.1323 27.9536 31.4089 28.1097 32.1981 28.3824C36.1676 29.753 41.2543 29.1968 45.4632 26.932C47.263 25.9636 47.5794 25.7326 49.616 23.9023L51.099 22.5694L50.4092 22.2176C49.7325 21.8725 49.6882 21.8922 48.0443 23.2731C47.1227 24.0469 45.514 25.1189 44.469 25.6552C41.6655 27.0936 37.4451 28.0627 37.4451 27.268C37.4451 26.8044 38.1592 25.8955 38.5232 25.8955C39.1019 25.8955 39.4409 25.276 39.0411 24.9489C38.4537 24.4681 37.4059 25.1415 36.7156 26.4439C36.1126 27.5814 36.0997 27.5896 35.1352 27.4346C33.5522 27.1804 30.5129 25.9993 29.2679 25.1544C28.1186 24.3748 28.1558 23.8153 29.3073 24.5594C30.1807 25.124 30.0416 24.6048 29.06 23.6366C28.5565 23.1402 27.8601 22.7356 27.3444 22.6402C26.4588 22.4764 24.8637 22.6332 24.5887 22.9112C24.5051 22.9961 25.3554 23.9268 26.4783 24.9801L28.52 26.8948L27.3293 26.72C24.4796 26.3015 22.0656 25.1115 19.8522 23.0344C17.9726 21.2703 17.16 19.9036 17.3399 18.8093C17.4148 18.3539 17.4557 17.9884 17.4306 17.9966C17.4056 18.0049 17.1342 18.1112 16.8274 18.2328ZM126.606 18.1356C126.529 18.2112 126.597 18.4788 126.756 18.7302C127.493 19.8928 124.123 23.8577 121.198 25.2703C119.6 26.0422 118.07 26.5104 116.349 26.7545L115.135 26.9267L117.14 25.0671C118.242 24.0443 119.144 23.1157 119.144 23.0035C119.144 22.6893 117.544 22.4658 116.576 22.6447C116.096 22.7337 115.284 23.185 114.752 23.6587C113.781 24.5242 113.494 25.1014 114.159 24.8494C114.36 24.7736 114.524 24.8115 114.524 24.9336C114.524 25.5276 110.734 27.1495 108.637 27.4531L107.594 27.6042L107.136 26.4909C106.809 25.694 106.453 25.2715 105.882 25.0031C104.446 24.3278 103.699 25.0938 105.102 25.8029C105.996 26.2545 106.248 26.5504 106.253 27.1545C106.258 27.7191 105.383 27.702 102.958 27.0905C100.632 26.5039 98.0395 25.0825 95.6884 23.1057C93.9774 21.6665 93.9275 21.6435 93.3911 22.0425L92.8428 22.4505L94.7744 24.2328C97.0348 26.3188 98.6617 27.3322 101.097 28.1714C104.615 29.3839 108.234 29.4968 111.09 28.4834C112.088 28.1289 113.145 27.9867 115.01 27.956C119.389 27.8841 122.225 26.7061 125.261 23.6985C126.286 22.6841 127.196 21.6286 127.285 21.3531C127.497 20.6924 127.897 20.9586 127.897 21.7608C127.897 22.2155 127.972 22.3207 128.16 22.1344C128.557 21.7432 128.477 19.717 128.039 19.0575C127.619 18.4261 126.828 17.9167 126.606 18.1356ZM42.0893 20.7885C42.2665 21.0792 42.4637 21.2655 42.5277 21.2025C42.5916 21.1394 42.4467 20.9015 42.2057 20.6737C41.787 20.2782 41.7817 20.2832 42.0893 20.7885ZM41.461 21.219C41.5434 21.6147 41.7676 22.0965 41.9594 22.2896C42.4516 22.7853 42.3747 22.3277 41.7994 21.3389L41.3114 20.4995L41.461 21.219ZM75.5293 25.3559C75.4454 25.8506 75.3139 26.4811 75.2368 26.7571C75.113 27.2003 75.3148 27.3358 76.9583 27.9111C82.6886 29.9175 86.7862 30.0417 92.0324 28.3682C93.1023 28.027 94.4031 27.537 94.9232 27.2792L95.8691 26.8109L95.1102 26.0626C94.3725 25.335 94.3229 25.3225 93.3136 25.6084C89.5581 26.672 87.9074 26.9003 84.8595 26.777C81.7416 26.6511 80.6916 26.4142 77.3364 25.0794C76.4754 24.7369 75.7508 24.4566 75.7262 24.4566C75.7019 24.4566 75.6132 24.8614 75.5293 25.3559Z" fill="#B4D672"/>
<path d="M4.49829 33.9548H0L6.68664 53.2602H9.11815H11.5497L18.2363 33.9548H13.738L9.11815 48.9435L4.49829 33.9548Z" fill="#292A27"/>
<path d="M20.0599 53.2602V38.991H24.0719V53.2602H20.0599Z" fill="#292A27"/>
<path d="M24.1935 34.9141C24.1935 36.0399 23.2682 36.9525 22.1267 36.9525C20.9853 36.9525 20.0599 36.0399 20.0599 34.9141C20.0599 33.7883 20.9853 32.8756 22.1267 32.8756C23.2682 32.8756 24.1935 33.7883 24.1935 34.9141Z" fill="#292A27"/>
<path d="M26.5034 42.1086L26.0171 38.991H29.0565V34.1946H32.9469V38.991H36.8373L36.351 42.1086H32.9469V49.0634C32.9469 50.0227 33.5548 50.862 35.8647 50.1426C35.962 50.2385 36.5537 51.7014 36.8373 52.4209C35.5 53.1403 34.649 53.5 33.0685 53.5C31.488 53.5 29.0565 52.4209 29.0565 49.543V42.1086H26.5034Z" fill="#292A27"/>
<path d="M59.3288 53.2602H55.3168V33.8349H59.3288V53.2602Z" fill="#292A27"/>
<path d="M63.3408 53.2602V38.991H67.3527V53.2602H63.3408Z" fill="#292A27"/>
<path d="M67.4743 34.9141C67.4743 36.0399 66.549 36.9525 65.4075 36.9525C64.2661 36.9525 63.3408 36.0399 63.3408 34.9141C63.3408 33.7883 64.2661 32.8756 65.4075 32.8756C66.549 32.8756 67.4743 33.7883 67.4743 34.9141Z" fill="#292A27"/>
<path d="M81.6986 39.7105L80.4829 42.4684C79.7534 42.2286 77.5651 41.5091 76.3493 41.5091C75.1336 41.5091 74.161 41.5091 74.161 42.7082C74.161 43.9073 78.1729 44.9865 78.1729 44.9865C78.1729 44.9865 82.0634 46.1856 82.0634 48.8236C82.0634 50.9819 79.9966 53.5 76.5925 53.5C73.1884 53.5 73.5531 53.5 70.3921 52.6607C70.6758 51.7414 71.2431 49.8548 71.2431 49.6629C71.2431 49.6629 74.6473 50.6222 75.4983 50.6222C76.3493 50.6222 78.2945 50.1426 78.2945 49.1833C78.2945 48.224 77.403 47.9842 76.9572 47.8643L75.012 47.3847C74.5257 47.2647 70.5137 46.5453 70.5137 42.948C70.5137 39.1109 74.5257 38.5114 76.3493 38.5114C78.1729 38.5114 78.4161 38.6313 81.6986 39.7105Z" fill="#292A27"/>
<path d="M84.1301 46.905V44.1471H93.2483V46.905H84.1301Z" fill="#B4D672"/>
<path d="M108.688 53.5H96.8955V33.9548H101.029V50.2625H108.688V53.5Z" fill="#B4D672"/>
<path d="M110.147 53.5V39.2308H114.159V53.5H110.147Z" fill="#B4D672"/>
<path d="M114.281 35.1539C114.281 36.2797 113.355 37.1924 112.214 37.1924C111.073 37.1924 110.147 36.2797 110.147 35.1539C110.147 34.0281 111.073 33.1154 112.214 33.1154C113.355 33.1154 114.281 34.0281 114.281 35.1539Z" fill="#B4D672"/>
<path d="M123.034 53.5H119.144V42.2286H117.32L116.955 38.8711H119.144C119.144 33.5951 123.156 32.9955 124.493 32.9955C125.83 32.9955 126.56 33.1154 128.019 33.715L126.803 36.2331C126.519 36.1531 125.048 35.8225 124.007 36.2331C122.966 36.6437 123.034 38.8711 123.034 38.8711H127.289L127.046 42.2286H123.034V53.5Z" fill="#B4D672"/>
<path fill-rule="evenodd" clip-rule="evenodd" d="M131.301 47.5046H142V44.7467C141.635 41.7489 139.082 38.5114 134.949 38.5114C130.815 38.5114 127.411 40.6697 127.411 45.4661C127.411 50.2625 129.721 53.5 134.584 53.5C138.474 53.5 140.744 52.221 141.392 51.5815L139.568 49.1833C139.001 49.6629 137.356 50.6222 135.313 50.6222C132.76 50.6222 131.301 49.0634 131.301 47.5046ZM138.231 44.7467H131.301C131.463 43.7074 132.42 41.629 134.949 41.629C137.477 41.629 138.191 43.7074 138.231 44.7467Z" fill="#B4D672"/>
<path fill-rule="evenodd" clip-rule="evenodd" d="M39.2688 39.7105C39.3661 39.9023 39.9578 41.629 40.2414 42.4684C43.0188 41.7309 43.3558 41.7339 44.6337 41.7455C44.8102 41.7471 45.0047 41.7489 45.226 41.7489C47.0497 41.7489 47.9007 42.948 47.9007 43.5476V44.8666C45.5664 44.5788 44.9829 44.5868 44.9829 44.6267C43.4024 44.6267 38.4178 44.6267 38.4178 49.0634C38.4178 53.5 43.0377 53.5 44.0103 53.5C44.9829 53.5 47.9007 52.7806 47.9007 52.4209V53.2602H51.6695V43.5476C51.5479 41.1494 50.4538 38.6313 45.226 38.6313C42.211 38.6313 39.9983 39.3507 39.2688 39.7105ZM47.9007 50.0227V47.2648C47.4954 47.1848 46.3445 47.0249 44.9829 47.0249C43.2808 47.0249 41.9435 47.8643 41.9435 49.0634C41.9435 50.2625 43.1592 51.1019 44.6181 51.1019C46.0771 51.1019 46.5634 50.862 47.9007 50.0227Z" fill="#292A27"/>
</svg>
