<svg width="142" height="53" viewBox="0 0 142 53" fill="none" xmlns="http://www.w3.org/2000/svg">
<path fill-rule="evenodd" clip-rule="evenodd" d="M84.4563 0.329351C80.1657 1.09725 77.4677 2.44575 74.633 5.23893C73.0735 6.77569 72.3022 7.76973 71.554 9.20769C70.1873 11.8342 70.0453 12.7194 70.7781 14.0427C71.095 14.6149 71.4215 15.0833 71.5032 15.0833C71.5849 15.0833 71.7909 14.4628 71.9608 13.7043C72.408 11.7073 73.9529 8.688 75.2944 7.18961C78.6358 3.45755 84.2839 1.58169 90.5203 2.13255C93.628 2.40714 94.5962 2.60068 94.7423 2.97671C94.8058 3.13955 94.6806 3.96069 94.4642 4.80126C93.2273 9.60891 90.7175 13.9175 87.8454 16.1644C84.9477 18.4311 80.8657 19.8796 77.375 19.8796H75.3518L74.9995 20.7113C74.8057 21.1687 74.6471 21.6495 74.6471 21.7797C74.6471 22.5702 79.337 22.1701 82.5481 21.1058C90.0471 18.6206 94.6747 12.9611 96.8859 3.57194C97.4423 1.20925 97.4868 1.29654 95.4973 0.84688C91.4574 -0.0665904 87.6625 -0.244296 84.4563 0.329351ZM52.7636 1.77138C50.9154 2.13711 47.3408 3.27361 46.8164 3.66212C46.501 3.89594 46.564 4.19835 47.2934 5.94711C48.9396 9.89405 50.5276 12.3958 52.8852 14.7554C56.4651 18.3386 59.841 19.6753 65.4468 19.7297C67.1403 19.7463 68.5946 19.6923 68.6788 19.6098C68.7629 19.5273 68.6513 19.0146 68.4305 18.4707L68.0293 17.4814H64.8173C61.2894 17.4814 59.981 17.2143 57.5291 15.9938C55.6709 15.0689 52.7023 12.1248 51.4263 9.94178C50.1546 7.76614 48.8805 4.93436 49.0801 4.72763C49.1669 4.63794 50.1132 4.33217 51.1831 4.04846C53.6839 3.38536 58.0295 3.15682 60.3847 3.56451C62.3994 3.91321 65.1609 5.09503 66.8957 6.35121C67.5608 6.83276 68.1407 7.18673 68.1842 7.13805C68.2277 7.08913 68.44 6.70662 68.6559 6.28765L69.0486 5.52599L68.1086 4.79166C66.6905 3.68418 63.3188 2.18747 61.3188 1.77786C59.1789 1.33971 54.9617 1.33635 52.7636 1.77138ZM81.9227 4.59693C80.4169 5.59769 79.5143 7.4232 79.5116 9.47341C79.5102 10.4137 79.4464 10.4972 78.1108 11.3104C76.1077 12.5299 74.0942 14.7226 71.5248 18.4829C68.2304 23.3043 65.9543 25.1185 62.0641 26.0243C59.1093 26.7123 53.2958 26.1356 49.8458 24.8122C49.6138 24.7233 49.2316 24.9815 48.7958 25.5211L48.1106 26.3701L49.6865 27.0749C52.7522 28.4457 54.9286 28.8669 58.9639 28.87C61.7879 28.8721 62.9132 28.7774 63.9485 28.4496C67.7935 27.233 70.9286 24.7693 73.207 21.1744C77.9749 13.6518 78.8318 12.8939 84.981 10.7627C86.5858 10.2063 88.4459 9.47988 89.1146 9.14821C90.3892 8.51581 92.4511 7.14237 92.3198 7.01311C92.2778 6.97162 91.8676 7.0522 91.4085 7.19201C88.6721 8.02586 81.3005 9.72714 81.1254 9.56526C80.6729 9.14606 81.2574 6.93469 82.2018 5.49361C82.7217 4.70053 83.056 4.05158 82.9449 4.05158C82.8338 4.05158 82.3737 4.29692 81.9227 4.59693ZM59.8242 6.37375C59.8293 6.48143 60.2942 6.89032 60.8576 7.28242L61.8817 7.99516L59.4262 8.28439C56.9302 8.5784 54.3314 9.19954 54.1087 9.55495C54.0411 9.66287 55.7624 9.80364 57.9337 9.86791C62.5703 10.0048 63.6601 10.2998 65.2849 11.8572C66.4622 12.9858 68.4079 15.7862 69.1524 17.4236C69.4068 17.9829 69.6874 18.4407 69.7761 18.4407C70.0076 18.4407 70.7567 16.8239 70.7567 16.3243C70.7567 15.5972 68.5008 12.016 67.2425 10.7454C66.5801 10.0766 65.7048 9.36213 65.2973 9.15757C64.8897 8.95324 64.064 8.43619 63.4622 8.00859C61.8003 6.82797 59.8033 5.93056 59.8242 6.37375ZM60.5444 13.6144L59.2071 14.035L60.0746 14.2022C60.9626 14.3732 62.2131 14.0765 63.0909 13.487C63.5344 13.1887 63.5072 13.1659 62.7262 13.1793C62.2618 13.1875 61.2799 13.3832 60.5444 13.6144ZM85.4673 14.436C84.5825 14.7782 83.6063 14.9139 81.8811 14.9348C80.5771 14.9504 79.5104 14.9957 79.5104 15.0355C79.5102 15.0753 79.8897 15.2641 80.3534 15.4552C82.1158 16.1814 84.8364 15.7528 86.4222 14.4993C87.1339 13.9367 86.8127 13.9153 85.4673 14.436ZM40.0004 17.4778C39.6779 17.9923 39.5872 20.266 39.8506 21.2272C40.2044 22.5176 40.9095 23.3752 42.117 23.9827C43.5333 24.6954 43.7801 24.3367 43.1309 22.5088C42.8515 21.7222 42.7027 21.0787 42.8002 21.0787C42.9965 21.0787 44.0102 23.2879 44.0102 23.7153C44.0102 24.2678 44.4872 23.6685 44.7257 22.8162C45.0547 21.6409 44.6902 20.3538 43.7191 19.2628C42.6468 18.0582 40.3327 16.9476 40.0004 17.4778ZM102.654 17.6066C100.421 18.5616 98.9622 20.3087 98.9622 22.0282C98.9622 22.6426 99.1173 23.3549 99.3072 23.6107C99.6396 24.059 99.6579 24.0527 99.8154 23.434C99.9052 23.081 100.128 22.7356 100.311 22.6663C100.573 22.5673 100.594 22.6685 100.411 23.1443C100.073 24.0189 100.118 24.1964 100.676 24.1964C101.784 24.1964 103.163 23.1052 103.918 21.6303C104.495 20.5051 104.341 17.5138 103.697 17.3294C103.567 17.292 103.097 17.4167 102.654 17.6066ZM16.8274 17.7328C16.2552 17.9592 15.5615 19.2544 15.5615 20.0962C15.5615 20.3557 15.6884 20.8718 15.8436 21.243L16.1254 21.9181L16.2691 21.2296L16.4126 20.5411L17.5556 21.9941C18.7893 23.5625 20.6577 25.136 22.2197 25.9219C24.4465 27.0423 25.832 27.3764 28.4485 27.4234C30.1323 27.4536 31.4089 27.6097 32.1981 27.8824C36.1676 29.253 41.2543 28.6968 45.4632 26.432C47.263 25.4636 47.5794 25.2326 49.616 23.4023L51.099 22.0694L50.4092 21.7176C49.7325 21.3725 49.6882 21.3922 48.0443 22.7731C47.1227 23.5469 45.514 24.6189 44.469 25.1552C41.6655 26.5936 37.4451 27.5627 37.4451 26.768C37.4451 26.3044 38.1592 25.3955 38.5232 25.3955C39.1019 25.3955 39.4409 24.776 39.0411 24.4489C38.4537 23.9681 37.4059 24.6415 36.7156 25.9439C36.1126 27.0814 36.0997 27.0896 35.1352 26.9346C33.5522 26.6804 30.5129 25.4993 29.2679 24.6544C28.1186 23.8748 28.1558 23.3153 29.3073 24.0594C30.1807 24.624 30.0416 24.1048 29.06 23.1366C28.5565 22.6402 27.8601 22.2356 27.3444 22.1402C26.4588 21.9764 24.8637 22.1332 24.5887 22.4112C24.5051 22.4961 25.3554 23.4268 26.4783 24.4801L28.52 26.3948L27.3293 26.22C24.4796 25.8015 22.0656 24.6115 19.8522 22.5344C17.9726 20.7703 17.16 19.4036 17.3399 18.3093C17.4148 17.8539 17.4557 17.4884 17.4306 17.4966C17.4056 17.5049 17.1342 17.6112 16.8274 17.7328ZM126.606 17.6356C126.529 17.7112 126.597 17.9788 126.756 18.2302C127.493 19.3928 124.123 23.3577 121.198 24.7703C119.6 25.5422 118.07 26.0104 116.349 26.2545L115.135 26.4267L117.14 24.5671C118.242 23.5443 119.144 22.6157 119.144 22.5035C119.144 22.1893 117.544 21.9658 116.576 22.1447C116.096 22.2337 115.284 22.685 114.752 23.1587C113.781 24.0242 113.494 24.6014 114.159 24.3494C114.36 24.2736 114.524 24.3115 114.524 24.4336C114.524 25.0276 110.734 26.6495 108.637 26.9531L107.594 27.1042L107.136 25.9909C106.809 25.194 106.453 24.7715 105.882 24.5031C104.446 23.8278 103.699 24.5938 105.102 25.3029C105.996 25.7545 106.248 26.0504 106.253 26.6545C106.258 27.2191 105.383 27.202 102.958 26.5905C100.632 26.0039 98.0395 24.5825 95.6884 22.6057C93.9774 21.1665 93.9275 21.1435 93.3911 21.5425L92.8428 21.9505L94.7744 23.7328C97.0348 25.8188 98.6617 26.8322 101.097 27.6714C104.615 28.8839 108.234 28.9968 111.09 27.9834C112.088 27.6289 113.145 27.4867 115.01 27.456C119.389 27.3841 122.225 26.2061 125.261 23.1985C126.286 22.1841 127.196 21.1286 127.285 20.8531C127.497 20.1924 127.897 20.4586 127.897 21.2608C127.897 21.7155 127.972 21.8207 128.16 21.6344C128.557 21.2432 128.477 19.217 128.039 18.5575C127.619 17.9261 126.828 17.4167 126.606 17.6356ZM42.0893 20.2885C42.2665 20.5792 42.4637 20.7655 42.5277 20.7025C42.5916 20.6394 42.4467 20.4015 42.2057 20.1737C41.787 19.7782 41.7817 19.7832 42.0893 20.2885ZM41.461 20.719C41.5434 21.1147 41.7676 21.5965 41.9594 21.7896C42.4516 22.2853 42.3747 21.8277 41.7994 20.8389L41.3114 19.9995L41.461 20.719ZM75.5293 24.8559C75.4454 25.3506 75.3139 25.9811 75.2368 26.2571C75.113 26.7003 75.3148 26.8358 76.9583 27.4111C82.6886 29.4175 86.7862 29.5417 92.0324 27.8682C93.1023 27.527 94.4031 27.037 94.9232 26.7792L95.8691 26.3109L95.1102 25.5626C94.3725 24.835 94.3229 24.8225 93.3136 25.1084C89.5581 26.172 87.9074 26.4003 84.8595 26.277C81.7416 26.1511 80.6916 25.9142 77.3364 24.5794C76.4754 24.2369 75.7508 23.9566 75.7262 23.9566C75.7019 23.9566 75.6132 24.3614 75.5293 24.8559Z" fill="#B4D672"/>
<path d="M4.49829 33.4542H0L6.68664 52.7596H9.11815H11.5497L18.2363 33.4542H13.738L9.11815 48.4429L4.49829 33.4542Z" fill="white"/>
<path d="M20.0599 52.7596V38.4904H24.0719V52.7596H20.0599Z" fill="white"/>
<path d="M24.1935 34.4135C24.1935 35.5393 23.2682 36.4519 22.1267 36.4519C20.9853 36.4519 20.0599 35.5393 20.0599 34.4135C20.0599 33.2877 20.9853 32.375 22.1267 32.375C23.2682 32.375 24.1935 33.2877 24.1935 34.4135Z" fill="white"/>
<path d="M26.5034 41.608L26.0171 38.4904H29.0565V33.694H32.9469V38.4904H36.8373L36.351 41.608H32.9469V48.5628C32.9469 49.5221 33.5548 50.3614 35.8647 49.642C35.962 49.7379 36.5537 51.2008 36.8373 51.9202C35.5 52.6397 34.649 52.9994 33.0685 52.9994C31.488 52.9994 29.0565 51.9202 29.0565 49.0424V41.608H26.5034Z" fill="white"/>
<path d="M59.3288 52.7596H55.3168V33.3343H59.3288V52.7596Z" fill="white"/>
<path d="M63.3408 52.7596V38.4904H67.3527V52.7596H63.3408Z" fill="white"/>
<path d="M67.4743 34.4135C67.4743 35.5393 66.549 36.4519 65.4075 36.4519C64.2661 36.4519 63.3408 35.5393 63.3408 34.4135C63.3408 33.2877 64.2661 32.375 65.4075 32.375C66.549 32.375 67.4743 33.2877 67.4743 34.4135Z" fill="white"/>
<path d="M81.6986 39.2098L80.4829 41.9678C79.7534 41.7279 77.5651 41.0085 76.3493 41.0085C75.1336 41.0085 74.161 41.0085 74.161 42.2076C74.161 43.4067 78.1729 44.4859 78.1729 44.4859C78.1729 44.4859 82.0634 45.685 82.0634 48.323C82.0634 50.4813 79.9966 52.9994 76.5925 52.9994C73.1884 52.9994 73.5531 52.9994 70.3921 52.1601C70.6758 51.2408 71.2431 49.3542 71.2431 49.1623C71.2431 49.1623 74.6473 50.1216 75.4983 50.1216C76.3493 50.1216 78.2945 49.642 78.2945 48.6827C78.2945 47.7234 77.403 47.4836 76.9572 47.3637L75.012 46.884C74.5257 46.7641 70.5137 46.0447 70.5137 42.4474C70.5137 38.6103 74.5257 38.0107 76.3493 38.0107C78.1729 38.0107 78.4161 38.1307 81.6986 39.2098Z" fill="white"/>
<path d="M84.1301 46.4044V43.6465H93.2483V46.4044H84.1301Z" fill="#B4D672"/>
<path d="M108.688 52.9994H96.8955V33.4542H101.029V49.7619H108.688V52.9994Z" fill="#B4D672"/>
<path d="M110.147 52.9994V38.7302H114.159V52.9994H110.147Z" fill="#B4D672"/>
<path d="M114.281 34.6533C114.281 35.7791 113.355 36.6917 112.214 36.6917C111.073 36.6917 110.147 35.7791 110.147 34.6533C110.147 33.5275 111.073 32.6148 112.214 32.6148C113.355 32.6148 114.281 33.5275 114.281 34.6533Z" fill="#B4D672"/>
<path d="M123.034 52.9994H119.144V41.7279H117.32L116.955 38.3705H119.144C119.144 33.0945 123.156 32.4949 124.493 32.4949C125.83 32.4949 126.56 32.6148 128.019 33.2144L126.803 35.7325C126.519 35.6525 125.048 35.3219 124.007 35.7325C122.966 36.143 123.034 38.3705 123.034 38.3705H127.289L127.046 41.7279H123.034V52.9994Z" fill="#B4D672"/>
<path fill-rule="evenodd" clip-rule="evenodd" d="M131.301 47.004H142V44.246C141.635 41.2483 139.082 38.0107 134.949 38.0107C130.815 38.0107 127.411 40.1691 127.411 44.9655C127.411 49.7619 129.721 52.9994 134.584 52.9994C138.474 52.9994 140.744 51.7204 141.392 51.0809L139.568 48.6827C139.001 49.1623 137.356 50.1216 135.313 50.1216C132.76 50.1216 131.301 48.5628 131.301 47.004ZM138.231 44.246H131.301C131.463 43.2068 132.42 41.1284 134.949 41.1284C137.477 41.1284 138.191 43.2068 138.231 44.246Z" fill="#B4D672"/>
<path fill-rule="evenodd" clip-rule="evenodd" d="M39.2688 39.2098C39.3661 39.4017 39.9578 41.1284 40.2414 41.9678C43.0188 41.2303 43.3558 41.2333 44.6337 41.2449C44.8102 41.2465 45.0047 41.2483 45.226 41.2483C47.0497 41.2483 47.9007 42.4474 47.9007 43.0469V44.3659C45.5664 44.0782 44.9829 44.0862 44.9829 44.1261C43.4024 44.1261 38.4178 44.1261 38.4178 48.5628C38.4178 52.9994 43.0377 52.9994 44.0103 52.9994C44.9829 52.9994 47.9007 52.28 47.9007 51.9202V52.7596H51.6695V43.0469C51.5479 40.6488 50.4538 38.1307 45.226 38.1307C42.211 38.1307 39.9983 38.8501 39.2688 39.2098ZM47.9007 49.5221V46.7641C47.4954 46.6842 46.3445 46.5243 44.9829 46.5243C43.2808 46.5243 41.9435 47.3637 41.9435 48.5628C41.9435 49.7619 43.1592 50.6012 44.6181 50.6012C46.0771 50.6012 46.5634 50.3614 47.9007 49.5221Z" fill="white"/>
</svg>
